<svg width="70" height="84" viewBox="0 0 70 84" fill="none" xmlns="http://www.w3.org/2000/svg">
<path d="M15.7016 47.7009C15.5161 47.7506 15.3539 47.7941 15.2148 47.8314C15.0757 47.8686 14.9682 47.885 14.8925 47.8804L14.8229 47.8991C14.7534 47.9177 14.7 47.8575 14.6627 47.7184C14.6192 47.5561 14.6097 47.3351 14.6341 47.0552C14.6755 46.746 14.7377 46.4684 14.8209 46.2225C14.9273 45.9704 15.05 45.8257 15.1891 45.7884L15.2587 45.7698C15.6267 45.8451 16.075 45.8492 16.6037 45.7821C17.1323 45.7149 17.6864 45.6037 18.266 45.4485C19.0774 45.231 19.8415 44.9766 20.5585 44.6851C21.2987 44.3874 21.8164 44.1866 22.1115 44.0826C22.1347 44.0764 22.1525 44.0965 22.1649 44.1428C22.1898 44.2356 22.1753 44.4134 22.1215 44.6763C22.0847 44.9097 22.0493 45.0559 22.0154 45.1147C21.8208 45.3159 21.4609 45.549 20.9356 45.814C20.4272 46.0496 19.8462 46.2922 19.1926 46.5419C18.5621 46.7854 17.9285 47.0173 17.2918 47.2375C16.6721 47.4284 16.142 47.5829 15.7016 47.7009ZM34.4013 51.2252C34.0535 51.3184 33.6439 51.366 33.1724 51.3681C32.7302 51.3872 32.3252 51.3591 31.9571 51.2838C31.6061 51.1791 31.4088 51.0456 31.3653 50.8833C31.2659 50.5124 31.564 50.2337 32.2594 50.0474C32.6535 49.9418 33.0954 49.7364 33.5851 49.4313C34.0749 49.1261 34.5151 48.8218 34.9059 48.5183C35.3136 48.1855 35.5746 47.954 35.6888 47.824C35.5464 47.6634 35.2192 47.4157 34.707 47.0808C34.1949 46.746 33.6294 46.3509 33.0105 45.8955C32.4147 45.434 31.8885 44.9538 31.4318 44.455C31.2858 45.1153 31.0602 45.8963 30.7552 46.798C30.4733 47.6935 30.1844 48.5163 29.8885 49.2664C29.699 49.7644 29.4167 50.2873 29.0417 50.835C28.6666 51.3828 28.2009 51.7312 27.6446 51.8803C27.2041 51.9983 26.8655 51.9399 26.6287 51.7052C26.3918 51.4705 26.1958 51.0634 26.0405 50.4838C25.9597 50.1825 25.8844 49.8548 25.8144 49.5009C25.7444 49.1469 25.6852 48.7404 25.6367 48.2813C25.4229 46.649 25.3193 45.3351 25.3259 44.3394C25.3262 43.3206 25.5234 42.7584 25.9175 42.6528C26.242 42.5659 26.5815 42.6737 26.9359 42.9763C27.2903 43.2789 27.5356 43.4989 27.6718 43.6363C27.5903 43.9812 27.5005 44.527 27.4024 45.2738C27.3276 46.0144 27.2852 46.7836 27.2753 47.5813C27.2655 48.3791 27.3351 49.0561 27.4842 49.6125C27.6332 50.1689 27.8353 50.4129 28.0903 50.3446C28.1598 50.3259 28.2147 50.2988 28.2548 50.2632C28.7089 49.9179 29.104 49.3524 29.4401 48.5666C29.7994 47.7747 30.0999 46.9487 30.3416 46.0889C30.6064 45.2228 30.8212 44.4944 30.9859 43.9037C30.7537 43.5932 30.5909 43.2641 30.4978 42.9164C30.3238 42.2673 30.3362 41.6179 30.5349 40.9684C30.7273 40.2957 31.0164 39.6591 31.4022 39.0588C31.8049 38.4291 32.2263 37.869 32.6663 37.3784C33.1233 36.8584 33.5178 36.4297 33.8498 36.0923C33.9872 35.9561 34.1486 35.8631 34.3341 35.8134C34.705 35.714 35.0869 35.7484 35.4798 35.9164C35.8959 36.0782 36.1349 36.275 36.1971 36.5069C36.2033 36.5301 36.1956 36.5942 36.1741 36.6994C36.0446 36.9577 35.9229 37.3382 35.8091 37.8407C35.7185 38.3371 35.6572 38.8504 35.6254 39.3808C35.5874 39.8879 35.6211 40.3385 35.7267 40.7326C35.8448 41.1731 35.811 41.4181 35.6256 41.4678C35.5329 41.4927 35.4385 41.4186 35.3424 41.2455C35.2463 41.0725 35.1766 40.9049 35.1331 40.7426C35.0089 40.2789 34.9449 39.7619 34.9411 39.1914C34.9605 38.6147 34.9623 38.2043 34.9466 37.96C34.7147 38.0222 34.419 38.2629 34.0593 38.6823C33.6996 39.1017 33.3531 39.6169 33.0199 40.228C32.6867 40.839 32.4293 41.4546 32.2476 42.0748C32.0597 42.6718 32.0278 43.2021 32.1521 43.6657C32.3136 44.2685 32.6165 44.796 33.0607 45.2485C33.5281 45.6947 34.0558 46.0875 34.6436 46.4269C35.2547 46.7601 35.8417 47.0501 36.4048 47.2968C36.5716 47.1775 36.8071 46.9902 37.1114 46.7347C37.4094 46.4561 37.7157 45.9765 38.0303 45.2959C38.368 44.6091 38.6482 43.6147 38.8708 42.3127C38.8986 42.2307 38.9588 42.1773 39.0515 42.1525C39.1906 42.1152 39.285 42.1893 39.3347 42.3747C39.3782 42.537 39.3815 42.7349 39.3447 42.9684C39.1854 44.2285 38.8767 45.2554 38.4185 46.0491C37.9772 46.8133 37.4871 47.4416 36.9482 47.9338C36.9606 47.9802 36.9761 48.0382 36.9948 48.1077C37.0304 48.1479 37.0544 48.1911 37.0668 48.2375C37.1972 48.7243 37.1321 49.1766 36.8713 49.5943C36.6275 49.9826 36.2724 50.3263 35.8058 50.6252C35.3563 50.8947 34.8881 51.0947 34.4013 51.2252ZM26.7084 40.8756C26.5694 40.9128 26.4125 40.93 26.2378 40.9271C26.08 40.8949 25.9223 40.8626 25.7646 40.8303C25.6532 40.7856 25.582 40.7053 25.5509 40.5894C25.495 40.3808 25.5542 40.0916 25.7285 39.7219C25.8965 39.329 26.1465 38.9639 26.4785 38.6264C26.8105 38.289 27.1619 38.0706 27.5328 37.9712C27.7415 37.9153 27.8613 37.9453 27.8924 38.0612C27.9172 38.154 27.844 38.2978 27.6726 38.4928C27.4673 38.7466 27.3502 39.0513 27.3212 39.4069C27.2923 39.7625 27.254 40.0834 27.2064 40.3694C27.1526 40.6323 26.9866 40.801 26.7084 40.8756ZM43.0361 50.2532C42.642 50.3588 42.2522 50.2023 41.8668 49.7838C41.5045 49.3591 41.166 48.7914 40.8513 48.0806C40.5305 47.3467 40.2319 46.557 39.9557 45.7117C39.6733 44.8432 39.4296 44.0265 39.2246 43.2614C38.8084 41.7082 38.4378 40.0931 38.1127 38.4161C37.8107 36.7329 37.5591 35.0984 37.3578 33.5124C37.1502 31.9033 36.9916 30.4302 36.8817 29.093C36.7719 27.7559 36.6948 26.6336 36.6505 25.7262C36.623 24.7894 36.63 24.1663 36.6714 23.8571C36.7281 23.4195 36.7655 23.0492 36.7837 22.7462C36.8251 22.4369 36.9617 22.2512 37.1935 22.1891C37.5644 22.0897 37.9641 22.1441 38.3926 22.3523C38.8443 22.5543 39.1043 22.7828 39.1726 23.0378L39.1912 23.1073C39.2806 22.8846 39.4528 22.7391 39.7078 22.6708C40.0787 22.5714 40.4182 22.6792 40.7262 22.9942C41.0575 23.303 41.3346 23.6884 41.5578 24.1504C41.798 24.583 41.9584 24.9499 42.0392 25.2513C42.2814 26.1554 42.3662 27.2135 42.2934 28.4257C42.2144 29.6146 42.0374 30.8547 41.7622 32.1459C41.4808 33.414 41.1553 34.6565 40.7857 35.8737C40.4099 37.0676 40.0494 38.1332 39.7043 39.0705C39.86 40.0226 40.0304 40.9832 40.2156 41.9524C40.4007 42.9215 40.6206 43.8813 40.8753 44.8317C41.0119 45.3417 41.154 45.8255 41.3014 46.2829C41.472 46.7341 41.6364 47.1621 41.7946 47.567C41.7179 46.8173 41.6628 45.9624 41.6292 45.0024C41.5955 44.0424 41.5766 43.0909 41.5724 42.1478C41.562 41.1816 41.5648 40.3112 41.5809 39.5367C41.6201 38.7559 41.6658 38.1846 41.718 37.8228C41.8007 37.2043 41.9965 36.7295 42.3053 36.3983C42.6373 36.0608 42.9771 35.8455 43.3248 35.7524C43.4639 35.7151 43.6326 35.8811 43.831 36.2503C44.0293 36.6196 44.2324 37.0994 44.4403 37.6897C44.6713 38.2738 44.897 38.8842 45.1173 39.5209C45.3314 40.1343 45.5121 40.6698 45.6595 41.1272C45.9295 41.9494 46.1922 42.5126 46.4477 42.8168C46.7031 43.1211 46.9329 43.2831 47.137 43.303C47.3411 43.3228 47.5042 43.3288 47.6263 43.321C47.8349 43.265 48.0171 43.0175 48.1727 42.5782C48.3453 42.1096 48.4908 41.5861 48.6091 41.0078C48.7506 40.4232 48.8876 39.9144 49.02 39.4814C49.1463 39.0252 49.2789 38.7784 49.418 38.7412C49.4876 38.7225 49.5379 38.7712 49.5689 38.8871C49.5938 38.9798 49.5994 39.1398 49.5857 39.3671C49.316 41.3277 49.021 42.823 48.7006 43.853C48.3803 44.883 47.9072 45.4819 47.2813 45.6496C46.7712 45.7863 46.3413 45.6654 45.9915 45.2871C45.4822 44.7775 45.0618 44.182 44.7301 43.5007C44.3923 42.7961 44.0745 42.0737 43.7768 41.3336C43.5022 40.5872 43.1822 39.9027 42.8166 39.2801C42.7561 39.1472 42.6795 39.0932 42.5868 39.1181C42.5173 39.1367 42.4663 39.2249 42.4341 39.3826C42.425 39.5341 42.402 39.7266 42.3652 39.9601C42.3391 40.141 42.3149 40.6072 42.2927 41.3585C42.2873 42.0805 42.2992 42.9594 42.3283 43.9952C42.3511 45.0077 42.4243 46.069 42.5478 47.1788C42.665 48.2655 42.8448 49.2609 43.087 50.165C43.0994 50.2114 43.0825 50.2408 43.0361 50.2532ZM39.5427 37.7721C39.9338 36.4498 40.2947 35.0611 40.6253 33.6059C40.9729 32.1214 41.2108 30.691 41.3391 29.315C41.4673 27.9389 41.3947 26.7408 41.1214 25.7208C40.9785 25.1876 40.7817 24.731 40.5308 24.351C40.2736 23.9478 39.9192 23.6452 39.4676 23.4433C39.432 23.4031 39.3879 23.3777 39.3353 23.3669C39.2827 23.3561 39.2302 23.3454 39.1776 23.3346C39.0486 25.3569 38.9964 27.6195 39.0211 30.1224C39.0395 32.6021 39.2134 35.152 39.5427 37.7721Z" fill="#BD19AB"/>
</svg>
