<svg width="55" height="42" viewBox="0 0 55 42" fill="none" xmlns="http://www.w3.org/2000/svg">
<path d="M11.512 41.428C11.296 41.428 11.056 41.344 10.792 41.176C10.552 41.032 10.24 40.804 9.856 40.492L9.568 39.376C9.52 39.424 9.46 39.448 9.388 39.448C9.34 39.448 9.316 39.424 9.316 39.376C9.316 39.28 9.352 39.196 9.424 39.124C9.184 39.052 8.944 38.956 8.704 38.836C8.464 38.716 8.248 38.548 8.056 38.332C8.08 38.356 8.044 38.26 7.948 38.044C7.852 37.828 7.852 37.696 7.948 37.648C7.636 37.552 7.372 37.324 7.156 36.964C6.964 36.604 6.856 36.268 6.832 35.956L7.012 35.74L6.616 34.156L6.832 33.94L6.616 33.256L6.796 33.076L6.832 31.78H7.084C7.204 31.444 7.288 31.084 7.336 30.7C7.408 30.34 7.456 29.98 7.48 29.62L7.876 29.404L8.164 28.828L8.056 28.144L8.74 27.28C8.74 26.92 8.86 26.548 9.1 26.164C9.34 25.78 9.58 25.444 9.82 25.156L9.856 25.012C9.904 24.964 9.892 24.94 9.82 24.94C9.748 24.94 9.724 24.928 9.748 24.904L10.144 24.868C9.976 24.772 9.928 24.652 10 24.508C10.096 24.34 10.228 24.172 10.396 24.004C10.564 23.836 10.672 23.728 10.72 23.68V23.356L11.008 22.888C11.032 22.912 11.068 22.924 11.116 22.924C11.164 22.924 11.212 22.888 11.26 22.816C11.308 22.72 11.308 22.624 11.26 22.528L12.124 21.664V21.304L12.628 20.98C12.532 20.98 12.484 20.92 12.484 20.8C12.508 20.8 12.64 20.656 12.88 20.368C13.144 20.056 13.444 19.696 13.78 19.288C14.116 18.856 14.428 18.46 14.716 18.1C15.004 17.74 15.184 17.5 15.256 17.38L15.58 17.272C15.628 17.248 15.616 17.212 15.544 17.164C15.496 17.116 15.496 17.092 15.544 17.092L16.156 16.804C16.084 16.732 16.048 16.66 16.048 16.588C16.048 16.468 16.12 16.396 16.264 16.372C16.408 16.324 16.42 16.24 16.3 16.12L16.876 15.76L17.164 14.176L17.02 13.78C17.092 13.372 17.128 13.036 17.128 12.772C17.128 12.436 17.104 12.124 17.056 11.836C17.008 11.524 16.996 11.176 17.02 10.792L16.804 10.72L17.02 10.54C17.068 10.516 17.032 10.504 16.912 10.504C16.816 10.48 16.756 10.48 16.732 10.504L16.588 9.676C16.564 9.868 16.432 10.096 16.192 10.36C15.952 10.6 15.772 10.792 15.652 10.936C15.628 10.912 15.592 10.9 15.544 10.9C15.496 10.9 15.448 10.948 15.4 11.044C15.352 11.116 15.34 11.176 15.364 11.224L14.608 11.98L14.896 12.052L14.212 12.736C14.26 12.832 14.284 12.892 14.284 12.916C14.284 13.012 14.236 13.108 14.14 13.204C14.044 13.276 13.948 13.264 13.852 13.168C13.756 13.456 13.648 13.768 13.528 14.104C13.408 14.416 13.228 14.68 12.988 14.896C13.084 14.848 13.108 14.872 13.06 14.968C13.012 15.04 12.988 15.04 12.988 14.968L12.628 15.328L12.7 15.616C12.34 16 12.076 16.396 11.908 16.804C11.74 17.212 11.5 17.632 11.188 18.064L10.72 18.208C10.696 18.304 10.612 18.472 10.468 18.712C10.324 18.952 10.084 19.312 9.748 19.792L9.82 20.08C9.652 20.344 9.46 20.596 9.244 20.836C9.028 21.052 8.812 21.268 8.596 21.484H8.452V21.196H8.308C8.26 21.292 8.152 21.436 7.984 21.628C7.84 21.82 7.804 21.952 7.876 22.024L7.3 22.312C7.42 22.408 7.36 22.492 7.12 22.564C6.904 22.636 6.664 22.72 6.4 22.816C6.136 22.888 5.992 23.008 5.968 23.176L3.952 23.068V22.996C3.952 22.9 3.88 22.852 3.736 22.852C3.568 22.852 3.448 22.924 3.376 23.068L2.512 22.6L2.224 22.132L2.044 22.168C1.66 21.832 1.324 21.436 1.036 20.98C0.772 20.524 0.616 20.032 0.568 19.504C0.664 19.552 0.676 19.396 0.604 19.036C0.508 18.652 0.448 18.196 0.424 17.668L0.712 17.416L0.532 17.38V16.624L0.82 16.336L1.216 14.248C1.24 14.272 1.264 14.296 1.288 14.32C1.336 14.344 1.36 14.344 1.36 14.32L1.216 14.032L1.504 13.492C1.528 13.516 1.564 13.528 1.612 13.528C1.66 13.528 1.684 13.48 1.684 13.384C1.708 13.288 1.696 13.216 1.648 13.168L2.08 12.34C2.104 12.364 2.116 12.376 2.116 12.376C2.14 12.376 2.152 12.376 2.152 12.376C2.224 12.376 2.26 12.316 2.26 12.196C2.284 12.076 2.272 11.992 2.224 11.944C2.44 11.752 2.632 11.5 2.8 11.188C2.992 10.852 3.172 10.54 3.34 10.252C3.532 9.94 3.736 9.748 3.952 9.676V9.388L4.528 9.028L4.42 8.92L5.104 8.164H5.284V8.092L6.04 7.3C5.944 7.204 5.74 7.156 5.428 7.156C5.212 7.156 4.984 7.18 4.744 7.228C4.528 7.252 4.36 7.276 4.24 7.3C4.264 7.252 4.276 7.192 4.276 7.12C4.276 7.072 4.252 7.048 4.204 7.048C4.156 7.048 4.096 7.072 4.024 7.12C3.952 7.144 3.892 7.156 3.844 7.156C3.748 7.156 3.748 7.048 3.844 6.832C3.964 6.736 4.228 6.688 4.636 6.688C5.044 6.664 5.5 6.628 6.004 6.58C6.508 6.532 6.94 6.436 7.3 6.292V6.076C7.588 6.076 7.888 5.968 8.2 5.752C8.536 5.512 8.776 5.296 8.92 5.104V4.852C9.112 4.756 9.388 4.576 9.748 4.312C10.132 4.024 10.504 3.772 10.864 3.556C11.224 3.34 11.476 3.268 11.62 3.34L12.052 3.124V3.016L12.988 2.836L12.916 2.548C13.396 2.308 14.008 2.032 14.752 1.72C15.496 1.384 16.108 1.18 16.588 1.108L16.804 1.468L16.984 0.963998L18.208 0.891999V0.675998C18.544 0.699999 18.868 0.675999 19.18 0.603999C19.492 0.531998 19.804 0.483998 20.116 0.459998L20.512 0.819998L20.872 0.459998H21.844L21.952 0.603999H22.672C22.696 0.675999 22.792 0.76 22.96 0.856C23.128 0.927999 23.224 0.891999 23.248 0.747999L23.896 1.324C23.8 1.516 23.752 1.636 23.752 1.684C23.752 1.708 23.872 1.648 24.112 1.504L24.472 2.62H24.328L24.616 3.556C24.448 3.58 24.376 3.64 24.4 3.736C24.448 3.832 24.484 3.916 24.508 3.988H24.472L23.104 4.816V4.636L23.248 4.6L23.284 4.564H22.96L22.528 4.996L22.42 4.852C22.348 4.852 22.276 4.912 22.204 5.032C22.156 5.128 22.096 5.164 22.024 5.14H21.952C21.808 5.14 21.628 5.188 21.412 5.284C21.22 5.356 21.112 5.404 21.088 5.428H20.512V5.68L19.936 5.716C19.936 5.644 19.888 5.608 19.792 5.608C19.696 5.608 19.648 5.644 19.648 5.716C18.688 5.956 17.74 6.136 16.804 6.256C15.892 6.376 14.968 6.532 14.032 6.724L14.068 6.652C14.044 6.604 13.984 6.58 13.888 6.58C13.672 6.58 13.54 6.664 13.492 6.832C12.628 6.784 11.812 6.844 11.044 7.012C10.3 7.18 9.496 7.336 8.632 7.48C8.656 7.552 8.608 7.636 8.488 7.732C8.392 7.804 8.308 7.816 8.236 7.768L5.968 10.72C5.872 10.696 5.752 10.792 5.608 11.008C5.464 11.2 5.332 11.404 5.212 11.62C5.116 11.836 5.068 11.98 5.068 12.052L4.42 12.88L4.456 12.916L4.132 13.312C4.18 13.36 4.204 13.396 4.204 13.42C4.204 13.516 4.156 13.612 4.06 13.708C3.964 13.78 3.892 13.84 3.844 13.888C3.868 13.936 3.88 13.996 3.88 14.068C3.88 14.188 3.832 14.308 3.736 14.428C3.664 14.548 3.58 14.632 3.484 14.68L3.592 14.824H3.088C3.088 14.824 3.076 14.836 3.052 14.86C3.052 14.86 3.052 14.872 3.052 14.896C3.052 14.944 3.088 14.992 3.16 15.04C3.256 15.088 3.328 15.088 3.376 15.04V15.544H3.196L2.98 16.624L3.016 16.804L2.656 17.092V17.668L2.728 17.596C2.8 17.596 2.86 17.644 2.908 17.74C2.956 17.812 2.956 17.896 2.908 17.992C2.812 18.136 2.752 18.196 2.728 18.172C2.704 18.124 2.668 18.28 2.62 18.64L2.8 18.784L3.772 20.908L4.348 21.016C4.324 21.04 4.336 21.052 4.384 21.052C4.432 21.052 4.456 21.064 4.456 21.088V21.304L5.176 21.088L5.752 21.268L5.86 21.016L6.832 20.908L7.336 20.476C7.336 20.452 7.348 20.44 7.372 20.44L7.336 20.476C7.288 20.572 7.324 20.62 7.444 20.62L8.164 19.936V19.792C8.332 19.792 8.548 19.624 8.812 19.288C9.1 18.928 9.364 18.544 9.604 18.136C9.868 17.704 10.048 17.392 10.144 17.2L10.612 16.984L10.54 16.804L11.188 16.048V15.76L11.692 15.472C11.668 15.256 11.716 15.016 11.836 14.752C11.98 14.464 12.124 14.236 12.268 14.068H12.556L13.168 12.952C13.144 12.88 13.156 12.856 13.204 12.88L13.168 12.952C13.192 13 13.216 13.024 13.24 13.024C13.312 13.024 13.336 12.94 13.312 12.772C13.312 12.58 13.324 12.52 13.348 12.592L13.744 11.872C13.744 11.92 13.756 11.932 13.78 11.908C13.828 11.884 13.828 11.872 13.78 11.872L14.356 10.936L14.212 10.54C14.332 10.204 14.476 9.868 14.644 9.532C14.836 9.172 15.052 8.872 15.292 8.632L15.256 8.416L15.868 6.94C15.94 6.964 16.048 6.976 16.192 6.976C16.336 6.976 16.324 6.952 16.156 6.904L18.208 7.768L18.604 9.208C18.436 9.256 18.412 9.376 18.532 9.568C18.676 9.736 18.664 9.844 18.496 9.892L18.784 10.792C18.76 10.744 18.7 10.744 18.604 10.792C18.532 10.816 18.496 10.864 18.496 10.936L18.784 13.672H18.892L19.648 13.204V12.88L20.332 12.52L20.224 12.268C20.368 12.196 20.536 12.124 20.728 12.052C20.92 11.956 21.1 11.92 21.268 11.944C21.316 11.896 21.352 11.8 21.376 11.656C21.424 11.488 21.388 11.404 21.268 11.404C21.364 11.38 21.58 11.284 21.916 11.116C22.252 10.948 22.576 10.804 22.888 10.684C23.2 10.564 23.368 10.576 23.392 10.72L23.248 11.224C23.152 11.176 23.092 11.152 23.068 11.152C22.996 11.152 22.948 11.2 22.924 11.296C22.924 11.392 22.912 11.464 22.888 11.512L22.708 11.404V11.512C22.3 11.872 21.904 12.244 21.52 12.628C21.136 12.988 20.704 13.312 20.224 13.6H20.296L20.116 13.78H19.756V14.032L19.108 14.536V14.572C19.108 14.668 19.048 14.752 18.928 14.824C18.808 14.872 18.7 14.896 18.604 14.896L18.532 16.984L18.244 17.128C18.364 17.44 18.424 17.764 18.424 18.1C18.424 18.388 18.364 18.712 18.244 19.072L18.028 19.216L18.244 19.288L17.956 19.936L18.136 20.152L17.956 21.016L17.74 21.088H17.956L17.848 22.168L17.632 22.312L17.452 23.932C17.428 23.908 17.404 23.896 17.38 23.896C17.308 23.896 17.26 23.956 17.236 24.076C17.212 24.196 17.26 24.244 17.38 24.22C17.356 24.412 17.284 24.76 17.164 25.264C17.068 25.744 16.96 26.224 16.84 26.704C16.72 27.16 16.588 27.484 16.444 27.676L16.588 28.108L16.408 28.144C16.384 28.528 16.312 28.9 16.192 29.26C16.096 29.644 15.976 30.004 15.832 30.34C15.904 30.316 15.928 30.34 15.904 30.412C15.904 30.484 15.88 30.508 15.832 30.484L15.868 30.988L15.652 31.168L15.58 32.032L15.256 32.284H15.436L15.076 32.968L15.184 33.58C14.968 34.036 14.776 34.504 14.608 34.984C14.464 35.488 14.368 35.992 14.32 36.496H14.068L13.852 37.468H13.744L13.78 38.008C13.66 38.296 13.528 38.584 13.384 38.872C13.264 39.16 13.156 39.472 13.06 39.808L12.7 39.844L12.916 39.952C12.388 40.936 11.92 41.428 11.512 41.428ZM10.396 6.256C10.66 6.208 11.044 6.148 11.548 6.076C12.052 6.004 12.472 5.968 12.808 5.968C13 5.968 13.132 5.98 13.204 6.004C13.444 5.884 13.684 5.824 13.924 5.824C14.188 5.824 14.416 5.872 14.608 5.968V5.716C15.16 5.692 15.712 5.584 16.264 5.392C16.84 5.2 17.404 5.104 17.956 5.104H17.992C18.088 5.104 18.148 5.128 18.172 5.176C18.196 5.224 18.244 5.236 18.316 5.212L18.424 4.996C18.544 4.924 18.664 4.888 18.784 4.888C18.928 4.888 19.06 4.876 19.18 4.852L19.36 4.996V4.852C19.48 4.756 19.732 4.648 20.116 4.528C20.5 4.384 20.884 4.264 21.268 4.168C21.676 4.048 21.952 3.988 22.096 3.988V3.7C22.264 3.532 22.432 3.424 22.6 3.376C22.792 3.304 22.888 3.1 22.888 2.764C22.6 2.788 22.312 2.752 22.024 2.656C21.76 2.56 21.484 2.5 21.196 2.476V2.26H20.98V2.476C20.836 2.476 20.644 2.44 20.404 2.368C20.164 2.296 19.972 2.26 19.828 2.26C19.636 2.26 19.504 2.296 19.432 2.368C19.384 2.44 19.264 2.476 19.072 2.476L18.82 2.26V2.296C18.82 2.44 18.724 2.548 18.532 2.62C18.364 2.668 18.172 2.692 17.956 2.692C17.716 2.692 17.524 2.668 17.38 2.62L17.344 2.836C17.224 2.884 17.044 2.92 16.804 2.944C16.588 2.944 16.42 2.968 16.3 3.016V3.124C16.204 3.148 16.156 3.124 16.156 3.052C16.156 2.956 16.108 2.944 16.012 3.016L15.868 3.304C15.652 3.4 15.412 3.448 15.148 3.448C14.908 3.424 14.692 3.484 14.5 3.628L14.608 3.7C14.464 3.772 14.356 3.808 14.284 3.808H14.176C14.128 3.808 14.068 3.832 13.996 3.88C13.948 3.904 13.876 3.988 13.78 4.132H13.348V4.276C13.108 4.444 12.916 4.552 12.772 4.6C12.652 4.648 12.46 4.72 12.196 4.816V4.924C12.028 5.116 11.788 5.212 11.476 5.212V5.428H11.188C11.092 5.572 10.972 5.716 10.828 5.86C10.708 6.004 10.564 6.1 10.396 6.148V6.256ZM10.144 38.224C10.216 38.104 10.264 37.972 10.288 37.828C10.336 37.684 10.384 37.552 10.432 37.432L10.72 37.36C10.648 37.096 10.696 36.832 10.864 36.568C11.056 36.304 11.164 36.028 11.188 35.74L11.548 35.452C11.572 35.26 11.668 34.912 11.836 34.408C12.004 33.928 12.184 33.448 12.376 32.968C12.592 32.512 12.748 32.212 12.844 32.068L12.772 31.852L13.06 31.78C13.108 31.684 13.132 31.624 13.132 31.6C13.132 31.552 13.12 31.492 13.096 31.42C13.072 31.372 13.06 31.336 13.06 31.312C13.06 31.24 13.192 31.156 13.456 31.06L13.276 30.628L13.744 30.232L13.456 30.196L13.78 30.124C13.684 30.052 13.624 29.968 13.6 29.872C13.6 29.776 13.612 29.668 13.636 29.548L14.032 29.476L13.744 29.404C13.864 29.284 13.912 29.128 13.888 28.936C13.888 28.768 13.972 28.636 14.14 28.54L14.428 28.684C14.332 28.612 14.272 28.492 14.248 28.324C14.224 28.18 14.212 28.06 14.212 27.964L14.5 27.82C14.524 27.34 14.596 26.884 14.716 26.452C14.86 25.996 15.076 25.576 15.364 25.192L15.184 25.012C15.304 24.82 15.352 24.628 15.328 24.436C15.328 24.22 15.4 24.028 15.544 23.86H15.724C15.7 23.812 15.688 23.74 15.688 23.644C15.688 23.5 15.736 23.38 15.832 23.284L15.652 23.176C15.772 23.008 15.832 22.828 15.832 22.636C15.832 22.42 15.868 22.216 15.94 22.024L16.228 21.844C16.18 21.796 16.18 21.58 16.228 21.196C16.3 20.788 16.384 20.332 16.48 19.828C16.576 19.3 16.66 18.844 16.732 18.46C16.828 18.076 16.876 17.872 16.876 17.848L17.092 17.704V17.488L16.804 17.416L16.876 17.092C16.852 17.044 16.828 17.032 16.804 17.056C16.78 17.08 16.78 17.104 16.804 17.128L16.228 17.704L16.12 17.56C16.096 17.68 15.952 17.908 15.688 18.244C15.424 18.58 15.148 18.928 14.86 19.288C14.596 19.648 14.416 19.936 14.32 20.152H14.032C14.128 20.032 14.092 19.972 13.924 19.972C13.78 19.948 13.756 20.032 13.852 20.224H14.14V20.332L13.852 20.728H13.636V21.016C13.468 21.184 13.324 21.376 13.204 21.592C13.108 21.784 12.988 21.976 12.844 22.168C12.772 22.192 12.616 22.372 12.376 22.708C12.16 23.044 11.896 23.464 11.584 23.968C11.296 24.448 11.008 24.952 10.72 25.48C10.432 26.008 10.192 26.476 10 26.884C9.808 27.268 9.7 27.532 9.676 27.676H9.28C9.328 27.7 9.364 27.76 9.388 27.856C9.412 27.928 9.46 27.964 9.532 27.964C9.508 28.132 9.436 28.3 9.316 28.468C9.196 28.636 9.064 28.78 8.92 28.9C8.992 28.996 8.968 29.236 8.848 29.62C8.728 30.028 8.656 30.316 8.632 30.484C8.512 30.46 8.476 30.508 8.524 30.628C8.572 30.772 8.548 30.796 8.452 30.7L8.344 30.988C8.392 31.132 8.416 31.24 8.416 31.312C8.416 31.48 8.368 31.648 8.272 31.816C8.2 31.984 8.116 32.14 8.02 32.284C8.14 32.5 8.2 32.704 8.2 32.896C8.2 33.04 8.164 33.184 8.092 33.328C8.044 33.472 7.972 33.64 7.876 33.832L8.056 33.868L8.02 33.94C8.14 34.228 8.2 34.552 8.2 34.912C8.2 35.008 8.2 35.104 8.2 35.2C8.2 35.32 8.188 35.44 8.164 35.56L8.452 35.848C8.38 35.944 8.344 36.076 8.344 36.244C8.656 36.556 8.92 36.928 9.136 37.36C9.376 37.816 9.712 38.104 10.144 38.224ZM31.9521 32.428C31.4241 32.428 30.9081 32.416 30.4041 32.392C29.9001 32.368 29.5161 32.368 29.2521 32.392L29.3961 32.32C29.0121 32.344 28.5201 32.308 27.9201 32.212C27.3441 32.116 26.7801 31.972 26.2281 31.78C25.7001 31.588 25.2921 31.36 25.0041 31.096C25.0281 31.072 25.0401 31.024 25.0401 30.952C25.0401 30.832 24.9561 30.736 24.7881 30.664C24.6201 30.616 24.5001 30.652 24.4281 30.772L23.9601 30.448C24.0081 30.4 24.0321 30.352 24.0321 30.304C24.0321 30.232 23.9841 30.172 23.8881 30.124C23.8161 30.076 23.7561 30.088 23.7081 30.16C23.5401 29.8 23.3241 29.464 23.0601 29.152C22.8201 28.864 22.6761 28.516 22.6281 28.108L22.3761 28.18C22.3521 27.916 22.2921 27.676 22.1961 27.46C22.1001 27.22 22.0761 26.968 22.1241 26.704L22.0521 26.776C22.0281 26.752 22.0041 26.704 21.9801 26.632C21.9561 26.56 21.9801 26.524 22.0521 26.524C22.0041 26.26 21.9441 26.02 21.8721 25.804C21.8241 25.564 21.8001 25.324 21.8001 25.084C21.8001 24.772 21.8841 24.472 22.0521 24.184C22.0041 24.184 21.9561 24.184 21.9081 24.184C21.8601 24.16 21.8481 24.136 21.8721 24.112C21.9201 23.992 21.9681 23.92 22.0161 23.896C22.0161 23.896 22.0041 23.896 21.9801 23.896C21.9081 23.896 21.8601 23.8 21.8361 23.608C22.0521 23.488 22.1601 23.272 22.1601 22.96C22.1601 22.84 22.1481 22.732 22.1241 22.636C22.1001 22.54 22.0761 22.444 22.0521 22.348H22.1241C22.2441 22.348 22.2801 22.276 22.2321 22.132C22.2081 21.964 22.1481 21.928 22.0521 22.024L22.6281 20.044C22.6281 20.044 22.6281 20.056 22.6281 20.08C22.6281 20.08 22.6401 20.08 22.6641 20.08C22.7121 20.08 22.7601 19.984 22.8081 19.792C22.8561 19.6 22.9041 19.54 22.9521 19.612V19.144C23.0721 19.24 23.1321 19.204 23.1321 19.036C23.1321 18.868 23.0721 18.844 22.9521 18.964L23.1681 18.532H23.3481L23.4201 17.884C23.4681 17.908 23.5281 17.92 23.6001 17.92C23.7201 17.92 23.7801 17.836 23.7801 17.668L23.7441 17.164C23.9841 16.828 24.2121 16.492 24.4281 16.156C24.6441 15.796 24.8361 15.436 25.0041 15.076L25.2921 15.22L25.5081 14.716L25.5441 14.788L26.8041 13.096V13.06L26.9121 13.096L26.7321 12.772L27.1281 12.268C27.3201 12.22 27.4401 12.184 27.4881 12.16C27.5601 12.136 27.5961 11.992 27.5961 11.728L28.0281 11.512V11.332C28.0761 11.284 28.1601 11.284 28.2801 11.332C28.4001 11.356 28.3761 11.284 28.2081 11.116L29.0001 10.828C29.0721 10.78 29.0961 10.708 29.0721 10.612C29.0481 10.492 29.0121 10.42 28.9641 10.396C29.2281 10.276 29.4561 10.12 29.6481 9.928C29.8401 9.712 30.0201 9.508 30.1881 9.316L30.6201 9.244C30.6681 9.148 30.6201 9.1 30.4761 9.1C30.7881 9.004 31.0161 8.872 31.1601 8.704C31.3281 8.512 31.5081 8.332 31.7001 8.164C31.8921 7.972 32.1801 7.864 32.5641 7.84L32.3481 7.768H32.4201C32.6361 7.624 32.8881 7.492 33.1761 7.372C33.4641 7.228 33.7401 7.18 34.0041 7.228L34.2201 6.832L34.1481 6.76C34.6761 6.496 35.2041 6.232 35.7321 5.968C36.2841 5.704 36.8481 5.5 37.4241 5.356L37.7481 5.536L39.5481 4.744L40.0161 4.888V4.744L41.3121 4.528L41.4201 4.6C41.6841 4.456 42.0561 4.384 42.5361 4.384C43.0641 4.384 43.6161 4.444 44.1921 4.564C44.7681 4.66 45.2241 4.768 45.5601 4.888V4.456L46.0641 4.384C46.1121 4.12 46.1361 3.856 46.1361 3.592C46.1601 3.304 46.2081 3.028 46.2801 2.764C46.3041 2.788 46.3281 2.812 46.3521 2.836C46.3761 2.86 46.3881 2.872 46.3881 2.872C46.4841 2.872 46.5321 2.776 46.5321 2.584C46.5321 2.368 46.5201 2.248 46.4961 2.224C46.7601 1.96 46.9281 1.672 47.0001 1.36C46.9521 1.264 46.9281 1.18 46.9281 1.108C46.9281 0.987999 46.9761 0.879999 47.0721 0.783998L47.5761 0.927999C47.6001 0.927999 47.6241 1.024 47.6481 1.216C47.6961 1.408 47.7201 1.648 47.7201 1.936C47.7201 2.032 47.7081 2.152 47.6841 2.296C47.6841 2.416 47.6721 2.536 47.6481 2.656L47.4321 2.764L47.1441 3.736L46.9281 3.88L46.5681 4.744C46.5441 4.696 46.5081 4.696 46.4601 4.744C46.4361 4.768 46.4001 4.768 46.3521 4.744L46.4241 5.968C46.4001 5.992 46.3761 6.004 46.3521 6.004C46.3281 6.004 46.2921 5.956 46.2441 5.86C46.1961 5.74 46.1721 5.704 46.1721 5.752V6.256L45.7761 6.76C45.7521 6.712 45.7401 6.736 45.7401 6.832C45.7401 6.928 45.7281 7 45.7041 7.048C45.4881 7.096 45.3201 7.216 45.2001 7.408C45.1041 7.576 44.9961 7.744 44.8761 7.912C44.7561 8.056 44.5641 8.128 44.3001 8.128L44.1921 8.56L43.9041 8.74L43.9761 8.812C43.7841 8.836 43.6041 8.92 43.4361 9.064C43.2921 9.184 43.1841 9.34 43.1121 9.532L42.7881 9.424C42.7881 9.664 42.6561 9.904 42.3921 10.144C42.1281 10.36 41.9001 10.516 41.7081 10.612C41.7081 10.612 41.6961 10.612 41.6721 10.612C41.6721 10.588 41.6601 10.576 41.6361 10.576C41.5641 10.576 41.4681 10.624 41.3481 10.72C41.2281 10.816 41.1801 10.888 41.2041 10.936C40.9881 11.032 40.7841 11.164 40.5921 11.332C40.4001 11.476 40.1721 11.572 39.9081 11.62C39.8841 11.332 39.9441 11.116 40.0881 10.972C40.2321 10.828 40.3881 10.684 40.5561 10.54C40.7481 10.396 40.8681 10.18 40.9161 9.892L41.4201 9.532V9.244C41.6601 9.1 41.8881 8.86 42.1041 8.524C42.3201 8.188 42.5361 7.876 42.7521 7.588C42.9921 7.3 43.2441 7.144 43.5081 7.12L43.4721 6.94C43.3521 6.844 43.2201 6.784 43.0761 6.76C42.9321 6.736 42.7881 6.724 42.6441 6.724C42.4761 6.724 42.3081 6.736 42.1401 6.76C41.9721 6.784 41.7921 6.796 41.6001 6.796C41.3361 6.796 41.1081 6.748 40.9161 6.652L40.7001 6.94C40.6041 6.916 40.5081 6.904 40.4121 6.904C40.3161 6.88 40.2201 6.868 40.1241 6.868C39.5481 6.868 38.9721 7.012 38.3961 7.3C37.8441 7.588 37.2801 7.876 36.7041 8.164C36.1521 8.452 35.5881 8.608 35.0121 8.632V8.92C34.7721 9.016 34.4721 9.184 34.1121 9.424C33.7521 9.664 33.4041 9.892 33.0681 10.108C32.7321 10.3 32.4681 10.372 32.2761 10.324L31.5561 10.936V11.188L30.8361 11.512L30.7641 11.8L30.2601 12.124L29.9721 12.304H30.1161L29.3961 12.628C29.3481 12.652 29.3721 12.688 29.4681 12.736C29.5881 12.76 29.6601 12.772 29.6841 12.772L28.6761 13.492L28.7121 13.564L28.5321 13.708C28.5081 13.708 28.4961 13.684 28.4961 13.636C28.4961 13.588 28.4841 13.564 28.4601 13.564C28.4601 13.804 28.3761 14.02 28.2081 14.212C28.0641 14.38 27.8601 14.476 27.5961 14.5L27.6681 14.788L27.3801 15.148C27.2601 15.124 27.0921 15.244 26.8761 15.508C26.6601 15.748 26.5041 15.916 26.4081 16.012L26.5161 16.156H26.4081C26.1441 16.396 25.9881 16.6 25.9401 16.768C25.8921 16.936 25.8561 17.044 25.8321 17.092C25.8321 17.116 25.7721 17.152 25.6521 17.2C25.5321 17.224 25.4961 17.284 25.5441 17.38L25.0401 17.668L24.9321 18.532C24.9081 18.556 24.8721 18.568 24.8241 18.568C24.7281 18.568 24.6561 18.508 24.6081 18.388C24.5841 18.268 24.5481 18.268 24.5001 18.388C24.4521 18.484 24.4281 18.544 24.4281 18.568V18.748C24.4281 18.796 24.4161 18.856 24.3921 18.928C24.3921 18.976 24.3681 19.06 24.3201 19.18H24.5361L24.2481 19.684H23.9601L23.7081 20.44L23.9241 20.476C23.7801 20.548 23.6481 20.668 23.5281 20.836C23.4081 20.98 23.3121 21.124 23.2401 21.268L23.4561 21.628L23.1321 22.312C23.1561 22.336 23.1681 22.372 23.1681 22.42C23.1681 22.516 23.0961 22.624 22.9521 22.744C22.8081 22.864 22.7361 22.984 22.7361 23.104H23.0241L22.9161 24.508L22.4481 25.012H22.8441C22.8921 25.468 22.8921 25.9 22.8441 26.308L23.1321 26.704L22.9521 27.1L23.8161 27.856L23.9241 28.504L24.0321 28.108L24.8241 28.792C24.7281 28.84 24.6921 28.876 24.7161 28.9C24.7641 28.948 24.7761 28.984 24.7521 29.008L25.5081 29.08L25.5441 29.44C25.9041 29.464 26.2521 29.5 26.5881 29.548C26.9481 29.596 27.3081 29.632 27.6681 29.656L27.8121 29.8H29.3241C29.3721 29.872 29.5521 29.908 29.8641 29.908C30.2961 29.908 30.8481 29.872 31.5201 29.8C32.2161 29.728 32.8521 29.644 33.4281 29.548C34.0281 29.476 34.4001 29.44 34.5441 29.44L34.6521 29.584L34.5801 29.476L34.6521 29.44L35.8761 29.188C35.9241 29.284 35.9481 29.32 35.9481 29.296H35.9841C36.0321 29.296 36.3081 29.2 36.8121 29.008C36.7641 28.96 36.7641 28.948 36.8121 28.972C36.8841 29.02 36.9441 29.044 36.9921 29.044C37.0401 29.044 37.0161 28.996 36.9201 28.9C37.4961 28.9 38.0481 28.78 38.5761 28.54C39.1281 28.324 39.7041 28.204 40.3041 28.18V28.072C40.5921 28.096 40.8801 28.048 41.1681 27.928C41.4801 27.784 41.7561 27.664 41.9961 27.568C42.0441 27.568 42.0921 27.58 42.1401 27.604C42.1881 27.604 42.2361 27.604 42.2841 27.604C42.5241 27.604 42.6321 27.532 42.6081 27.388L43.7601 27.1V26.992C44.0241 26.824 44.3121 26.704 44.6241 26.632C44.9361 26.56 45.2481 26.512 45.5601 26.488H45.2001C45.7041 26.416 46.2801 26.248 46.9281 25.984C47.5761 25.72 48.1521 25.528 48.6561 25.408V25.12C48.8001 25.168 48.9321 25.192 49.0521 25.192C49.4121 25.192 49.5921 25.036 49.5921 24.724C49.6401 24.676 49.7241 24.616 49.8441 24.544C49.9881 24.472 50.0961 24.496 50.1681 24.616L50.5281 24.22L51.0321 24.292C51.1521 24.244 51.1641 24.196 51.0681 24.148C50.9721 24.1 50.9361 24.052 50.9601 24.004C50.9841 23.98 51.0081 23.968 51.0321 23.968C51.0801 23.968 51.1281 23.992 51.1761 24.04C51.2481 24.088 51.2961 24.112 51.3201 24.112C51.3921 24.112 51.3921 24.052 51.3201 23.932L51.2481 23.896H51.8241L52.8321 22.996L53.3361 22.924C53.2401 22.876 53.1921 22.852 53.1921 22.852L53.4801 22.816L53.4081 22.708L53.9121 22.636L54.3081 22.312C54.2601 22.264 54.2361 22.228 54.2361 22.204C54.2361 22.108 54.2961 22.06 54.4161 22.06C54.5841 22.06 54.6561 22.18 54.6321 22.42C54.6081 22.516 54.4881 22.624 54.2721 22.744C54.0561 22.864 53.9121 22.948 53.8401 22.996L53.9121 23.14L53.5521 23.428L53.4801 23.32C53.4801 23.536 53.3601 23.764 53.1201 24.004C52.8801 24.22 52.6161 24.4 52.3281 24.544C52.0401 24.688 51.8241 24.772 51.6801 24.796L51.4641 25.228C50.8161 25.516 50.2161 25.936 49.6641 26.488L49.1601 26.524L49.0881 26.776L48.5121 26.884C48.5121 26.98 48.4401 27.088 48.2961 27.208C48.1761 27.304 48.0801 27.304 48.0081 27.208L47.6481 27.604C47.6961 27.532 47.6481 27.508 47.5041 27.532C47.3841 27.556 47.3601 27.616 47.4321 27.712C47.2881 27.76 46.9401 27.904 46.3881 28.144C45.8361 28.384 45.2241 28.648 44.5521 28.936C43.9041 29.224 43.3041 29.464 42.7521 29.656C42.2001 29.872 41.8521 29.98 41.7081 29.98V30.232L40.5201 30.484L40.6281 30.592L39.8001 30.664C39.7761 30.76 39.7161 30.82 39.6201 30.844C39.5241 30.892 39.4281 30.916 39.3321 30.916C39.2121 30.916 39.1041 30.916 39.0081 30.916C38.9121 30.916 38.9121 30.976 39.0081 31.096C38.2161 31.144 37.4721 31.312 36.7761 31.6C36.1041 31.888 35.3841 32.032 34.6161 32.032C34.4961 32.032 34.3641 32.02 34.2201 31.996C34.1001 31.996 33.9801 31.984 33.8601 31.96C33.8121 32.056 33.8361 32.128 33.9321 32.176C33.7641 32.272 33.5001 32.332 33.1401 32.356C32.7801 32.404 32.3841 32.428 31.9521 32.428Z" fill="#05657B"/>
</svg>
