<svg width="106" height="42" viewBox="0 0 106 42" fill="none" xmlns="http://www.w3.org/2000/svg">
<path d="M11.512 41.428C11.296 41.428 11.056 41.344 10.792 41.176C10.552 41.032 10.24 40.804 9.856 40.492L9.568 39.376C9.52 39.424 9.46 39.448 9.388 39.448C9.34 39.448 9.316 39.424 9.316 39.376C9.316 39.28 9.352 39.196 9.424 39.124C9.184 39.052 8.944 38.956 8.704 38.836C8.464 38.716 8.248 38.548 8.056 38.332C8.08 38.356 8.044 38.26 7.948 38.044C7.852 37.828 7.852 37.696 7.948 37.648C7.636 37.552 7.372 37.324 7.156 36.964C6.964 36.604 6.856 36.268 6.832 35.956L7.012 35.74L6.616 34.156L6.832 33.94L6.616 33.256L6.796 33.076L6.832 31.78H7.084C7.204 31.444 7.288 31.084 7.336 30.7C7.408 30.34 7.456 29.98 7.48 29.62L7.876 29.404L8.164 28.828L8.056 28.144L8.74 27.28C8.74 26.92 8.86 26.548 9.1 26.164C9.34 25.78 9.58 25.444 9.82 25.156L9.856 25.012C9.904 24.964 9.892 24.94 9.82 24.94C9.748 24.94 9.724 24.928 9.748 24.904L10.144 24.868C9.976 24.772 9.928 24.652 10 24.508C10.096 24.34 10.228 24.172 10.396 24.004C10.564 23.836 10.672 23.728 10.72 23.68V23.356L11.008 22.888C11.032 22.912 11.068 22.924 11.116 22.924C11.164 22.924 11.212 22.888 11.26 22.816C11.308 22.72 11.308 22.624 11.26 22.528L12.124 21.664V21.304L12.628 20.98C12.532 20.98 12.484 20.92 12.484 20.8C12.508 20.8 12.64 20.656 12.88 20.368C13.144 20.056 13.444 19.696 13.78 19.288C14.116 18.856 14.428 18.46 14.716 18.1C15.004 17.74 15.184 17.5 15.256 17.38L15.58 17.272C15.628 17.248 15.616 17.212 15.544 17.164C15.496 17.116 15.496 17.092 15.544 17.092L16.156 16.804C16.084 16.732 16.048 16.66 16.048 16.588C16.048 16.468 16.12 16.396 16.264 16.372C16.408 16.324 16.42 16.24 16.3 16.12L16.876 15.76L17.164 14.176L17.02 13.78C17.092 13.372 17.128 13.036 17.128 12.772C17.128 12.436 17.104 12.124 17.056 11.836C17.008 11.524 16.996 11.176 17.02 10.792L16.804 10.72L17.02 10.54C17.068 10.516 17.032 10.504 16.912 10.504C16.816 10.48 16.756 10.48 16.732 10.504L16.588 9.676C16.564 9.868 16.432 10.096 16.192 10.36C15.952 10.6 15.772 10.792 15.652 10.936C15.628 10.912 15.592 10.9 15.544 10.9C15.496 10.9 15.448 10.948 15.4 11.044C15.352 11.116 15.34 11.176 15.364 11.224L14.608 11.98L14.896 12.052L14.212 12.736C14.26 12.832 14.284 12.892 14.284 12.916C14.284 13.012 14.236 13.108 14.14 13.204C14.044 13.276 13.948 13.264 13.852 13.168C13.756 13.456 13.648 13.768 13.528 14.104C13.408 14.416 13.228 14.68 12.988 14.896C13.084 14.848 13.108 14.872 13.06 14.968C13.012 15.04 12.988 15.04 12.988 14.968L12.628 15.328L12.7 15.616C12.34 16 12.076 16.396 11.908 16.804C11.74 17.212 11.5 17.632 11.188 18.064L10.72 18.208C10.696 18.304 10.612 18.472 10.468 18.712C10.324 18.952 10.084 19.312 9.748 19.792L9.82 20.08C9.652 20.344 9.46 20.596 9.244 20.836C9.028 21.052 8.812 21.268 8.596 21.484H8.452V21.196H8.308C8.26 21.292 8.152 21.436 7.984 21.628C7.84 21.82 7.804 21.952 7.876 22.024L7.3 22.312C7.42 22.408 7.36 22.492 7.12 22.564C6.904 22.636 6.664 22.72 6.4 22.816C6.136 22.888 5.992 23.008 5.968 23.176L3.952 23.068V22.996C3.952 22.9 3.88 22.852 3.736 22.852C3.568 22.852 3.448 22.924 3.376 23.068L2.512 22.6L2.224 22.132L2.044 22.168C1.66 21.832 1.324 21.436 1.036 20.98C0.772 20.524 0.616 20.032 0.568 19.504C0.664 19.552 0.676 19.396 0.604 19.036C0.508 18.652 0.448 18.196 0.424 17.668L0.712 17.416L0.532 17.38V16.624L0.82 16.336L1.216 14.248C1.24 14.272 1.264 14.296 1.288 14.32C1.336 14.344 1.36 14.344 1.36 14.32L1.216 14.032L1.504 13.492C1.528 13.516 1.564 13.528 1.612 13.528C1.66 13.528 1.684 13.48 1.684 13.384C1.708 13.288 1.696 13.216 1.648 13.168L2.08 12.34C2.104 12.364 2.116 12.376 2.116 12.376C2.14 12.376 2.152 12.376 2.152 12.376C2.224 12.376 2.26 12.316 2.26 12.196C2.284 12.076 2.272 11.992 2.224 11.944C2.44 11.752 2.632 11.5 2.8 11.188C2.992 10.852 3.172 10.54 3.34 10.252C3.532 9.94 3.736 9.748 3.952 9.676V9.388L4.528 9.028L4.42 8.92L5.104 8.164H5.284V8.092L6.04 7.3C5.944 7.204 5.74 7.156 5.428 7.156C5.212 7.156 4.984 7.18 4.744 7.228C4.528 7.252 4.36 7.276 4.24 7.3C4.264 7.252 4.276 7.192 4.276 7.12C4.276 7.072 4.252 7.048 4.204 7.048C4.156 7.048 4.096 7.072 4.024 7.12C3.952 7.144 3.892 7.156 3.844 7.156C3.748 7.156 3.748 7.048 3.844 6.832C3.964 6.736 4.228 6.688 4.636 6.688C5.044 6.664 5.5 6.628 6.004 6.58C6.508 6.532 6.94 6.436 7.3 6.292V6.076C7.588 6.076 7.888 5.968 8.2 5.752C8.536 5.512 8.776 5.296 8.92 5.104V4.852C9.112 4.756 9.388 4.576 9.748 4.312C10.132 4.024 10.504 3.772 10.864 3.556C11.224 3.34 11.476 3.268 11.62 3.34L12.052 3.124V3.016L12.988 2.836L12.916 2.548C13.396 2.308 14.008 2.032 14.752 1.72C15.496 1.384 16.108 1.18 16.588 1.108L16.804 1.468L16.984 0.963998L18.208 0.891999V0.675998C18.544 0.699999 18.868 0.675999 19.18 0.603999C19.492 0.531998 19.804 0.483998 20.116 0.459998L20.512 0.819998L20.872 0.459998H21.844L21.952 0.603999H22.672C22.696 0.675999 22.792 0.76 22.96 0.856C23.128 0.927999 23.224 0.891999 23.248 0.747999L23.896 1.324C23.8 1.516 23.752 1.636 23.752 1.684C23.752 1.708 23.872 1.648 24.112 1.504L24.472 2.62H24.328L24.616 3.556C24.448 3.58 24.376 3.64 24.4 3.736C24.448 3.832 24.484 3.916 24.508 3.988H24.472L23.104 4.816V4.636L23.248 4.6L23.284 4.564H22.96L22.528 4.996L22.42 4.852C22.348 4.852 22.276 4.912 22.204 5.032C22.156 5.128 22.096 5.164 22.024 5.14H21.952C21.808 5.14 21.628 5.188 21.412 5.284C21.22 5.356 21.112 5.404 21.088 5.428H20.512V5.68L19.936 5.716C19.936 5.644 19.888 5.608 19.792 5.608C19.696 5.608 19.648 5.644 19.648 5.716C18.688 5.956 17.74 6.136 16.804 6.256C15.892 6.376 14.968 6.532 14.032 6.724L14.068 6.652C14.044 6.604 13.984 6.58 13.888 6.58C13.672 6.58 13.54 6.664 13.492 6.832C12.628 6.784 11.812 6.844 11.044 7.012C10.3 7.18 9.496 7.336 8.632 7.48C8.656 7.552 8.608 7.636 8.488 7.732C8.392 7.804 8.308 7.816 8.236 7.768L5.968 10.72C5.872 10.696 5.752 10.792 5.608 11.008C5.464 11.2 5.332 11.404 5.212 11.62C5.116 11.836 5.068 11.98 5.068 12.052L4.42 12.88L4.456 12.916L4.132 13.312C4.18 13.36 4.204 13.396 4.204 13.42C4.204 13.516 4.156 13.612 4.06 13.708C3.964 13.78 3.892 13.84 3.844 13.888C3.868 13.936 3.88 13.996 3.88 14.068C3.88 14.188 3.832 14.308 3.736 14.428C3.664 14.548 3.58 14.632 3.484 14.68L3.592 14.824H3.088C3.088 14.824 3.076 14.836 3.052 14.86C3.052 14.86 3.052 14.872 3.052 14.896C3.052 14.944 3.088 14.992 3.16 15.04C3.256 15.088 3.328 15.088 3.376 15.04V15.544H3.196L2.98 16.624L3.016 16.804L2.656 17.092V17.668L2.728 17.596C2.8 17.596 2.86 17.644 2.908 17.74C2.956 17.812 2.956 17.896 2.908 17.992C2.812 18.136 2.752 18.196 2.728 18.172C2.704 18.124 2.668 18.28 2.62 18.64L2.8 18.784L3.772 20.908L4.348 21.016C4.324 21.04 4.336 21.052 4.384 21.052C4.432 21.052 4.456 21.064 4.456 21.088V21.304L5.176 21.088L5.752 21.268L5.86 21.016L6.832 20.908L7.336 20.476C7.336 20.452 7.348 20.44 7.372 20.44L7.336 20.476C7.288 20.572 7.324 20.62 7.444 20.62L8.164 19.936V19.792C8.332 19.792 8.548 19.624 8.812 19.288C9.1 18.928 9.364 18.544 9.604 18.136C9.868 17.704 10.048 17.392 10.144 17.2L10.612 16.984L10.54 16.804L11.188 16.048V15.76L11.692 15.472C11.668 15.256 11.716 15.016 11.836 14.752C11.98 14.464 12.124 14.236 12.268 14.068H12.556L13.168 12.952C13.144 12.88 13.156 12.856 13.204 12.88L13.168 12.952C13.192 13 13.216 13.024 13.24 13.024C13.312 13.024 13.336 12.94 13.312 12.772C13.312 12.58 13.324 12.52 13.348 12.592L13.744 11.872C13.744 11.92 13.756 11.932 13.78 11.908C13.828 11.884 13.828 11.872 13.78 11.872L14.356 10.936L14.212 10.54C14.332 10.204 14.476 9.868 14.644 9.532C14.836 9.172 15.052 8.872 15.292 8.632L15.256 8.416L15.868 6.94C15.94 6.964 16.048 6.976 16.192 6.976C16.336 6.976 16.324 6.952 16.156 6.904L18.208 7.768L18.604 9.208C18.436 9.256 18.412 9.376 18.532 9.568C18.676 9.736 18.664 9.844 18.496 9.892L18.784 10.792C18.76 10.744 18.7 10.744 18.604 10.792C18.532 10.816 18.496 10.864 18.496 10.936L18.784 13.672H18.892L19.648 13.204V12.88L20.332 12.52L20.224 12.268C20.368 12.196 20.536 12.124 20.728 12.052C20.92 11.956 21.1 11.92 21.268 11.944C21.316 11.896 21.352 11.8 21.376 11.656C21.424 11.488 21.388 11.404 21.268 11.404C21.364 11.38 21.58 11.284 21.916 11.116C22.252 10.948 22.576 10.804 22.888 10.684C23.2 10.564 23.368 10.576 23.392 10.72L23.248 11.224C23.152 11.176 23.092 11.152 23.068 11.152C22.996 11.152 22.948 11.2 22.924 11.296C22.924 11.392 22.912 11.464 22.888 11.512L22.708 11.404V11.512C22.3 11.872 21.904 12.244 21.52 12.628C21.136 12.988 20.704 13.312 20.224 13.6H20.296L20.116 13.78H19.756V14.032L19.108 14.536V14.572C19.108 14.668 19.048 14.752 18.928 14.824C18.808 14.872 18.7 14.896 18.604 14.896L18.532 16.984L18.244 17.128C18.364 17.44 18.424 17.764 18.424 18.1C18.424 18.388 18.364 18.712 18.244 19.072L18.028 19.216L18.244 19.288L17.956 19.936L18.136 20.152L17.956 21.016L17.74 21.088H17.956L17.848 22.168L17.632 22.312L17.452 23.932C17.428 23.908 17.404 23.896 17.38 23.896C17.308 23.896 17.26 23.956 17.236 24.076C17.212 24.196 17.26 24.244 17.38 24.22C17.356 24.412 17.284 24.76 17.164 25.264C17.068 25.744 16.96 26.224 16.84 26.704C16.72 27.16 16.588 27.484 16.444 27.676L16.588 28.108L16.408 28.144C16.384 28.528 16.312 28.9 16.192 29.26C16.096 29.644 15.976 30.004 15.832 30.34C15.904 30.316 15.928 30.34 15.904 30.412C15.904 30.484 15.88 30.508 15.832 30.484L15.868 30.988L15.652 31.168L15.58 32.032L15.256 32.284H15.436L15.076 32.968L15.184 33.58C14.968 34.036 14.776 34.504 14.608 34.984C14.464 35.488 14.368 35.992 14.32 36.496H14.068L13.852 37.468H13.744L13.78 38.008C13.66 38.296 13.528 38.584 13.384 38.872C13.264 39.16 13.156 39.472 13.06 39.808L12.7 39.844L12.916 39.952C12.388 40.936 11.92 41.428 11.512 41.428ZM10.396 6.256C10.66 6.208 11.044 6.148 11.548 6.076C12.052 6.004 12.472 5.968 12.808 5.968C13 5.968 13.132 5.98 13.204 6.004C13.444 5.884 13.684 5.824 13.924 5.824C14.188 5.824 14.416 5.872 14.608 5.968V5.716C15.16 5.692 15.712 5.584 16.264 5.392C16.84 5.2 17.404 5.104 17.956 5.104H17.992C18.088 5.104 18.148 5.128 18.172 5.176C18.196 5.224 18.244 5.236 18.316 5.212L18.424 4.996C18.544 4.924 18.664 4.888 18.784 4.888C18.928 4.888 19.06 4.876 19.18 4.852L19.36 4.996V4.852C19.48 4.756 19.732 4.648 20.116 4.528C20.5 4.384 20.884 4.264 21.268 4.168C21.676 4.048 21.952 3.988 22.096 3.988V3.7C22.264 3.532 22.432 3.424 22.6 3.376C22.792 3.304 22.888 3.1 22.888 2.764C22.6 2.788 22.312 2.752 22.024 2.656C21.76 2.56 21.484 2.5 21.196 2.476V2.26H20.98V2.476C20.836 2.476 20.644 2.44 20.404 2.368C20.164 2.296 19.972 2.26 19.828 2.26C19.636 2.26 19.504 2.296 19.432 2.368C19.384 2.44 19.264 2.476 19.072 2.476L18.82 2.26V2.296C18.82 2.44 18.724 2.548 18.532 2.62C18.364 2.668 18.172 2.692 17.956 2.692C17.716 2.692 17.524 2.668 17.38 2.62L17.344 2.836C17.224 2.884 17.044 2.92 16.804 2.944C16.588 2.944 16.42 2.968 16.3 3.016V3.124C16.204 3.148 16.156 3.124 16.156 3.052C16.156 2.956 16.108 2.944 16.012 3.016L15.868 3.304C15.652 3.4 15.412 3.448 15.148 3.448C14.908 3.424 14.692 3.484 14.5 3.628L14.608 3.7C14.464 3.772 14.356 3.808 14.284 3.808H14.176C14.128 3.808 14.068 3.832 13.996 3.88C13.948 3.904 13.876 3.988 13.78 4.132H13.348V4.276C13.108 4.444 12.916 4.552 12.772 4.6C12.652 4.648 12.46 4.72 12.196 4.816V4.924C12.028 5.116 11.788 5.212 11.476 5.212V5.428H11.188C11.092 5.572 10.972 5.716 10.828 5.86C10.708 6.004 10.564 6.1 10.396 6.148V6.256ZM10.144 38.224C10.216 38.104 10.264 37.972 10.288 37.828C10.336 37.684 10.384 37.552 10.432 37.432L10.72 37.36C10.648 37.096 10.696 36.832 10.864 36.568C11.056 36.304 11.164 36.028 11.188 35.74L11.548 35.452C11.572 35.26 11.668 34.912 11.836 34.408C12.004 33.928 12.184 33.448 12.376 32.968C12.592 32.512 12.748 32.212 12.844 32.068L12.772 31.852L13.06 31.78C13.108 31.684 13.132 31.624 13.132 31.6C13.132 31.552 13.12 31.492 13.096 31.42C13.072 31.372 13.06 31.336 13.06 31.312C13.06 31.24 13.192 31.156 13.456 31.06L13.276 30.628L13.744 30.232L13.456 30.196L13.78 30.124C13.684 30.052 13.624 29.968 13.6 29.872C13.6 29.776 13.612 29.668 13.636 29.548L14.032 29.476L13.744 29.404C13.864 29.284 13.912 29.128 13.888 28.936C13.888 28.768 13.972 28.636 14.14 28.54L14.428 28.684C14.332 28.612 14.272 28.492 14.248 28.324C14.224 28.18 14.212 28.06 14.212 27.964L14.5 27.82C14.524 27.34 14.596 26.884 14.716 26.452C14.86 25.996 15.076 25.576 15.364 25.192L15.184 25.012C15.304 24.82 15.352 24.628 15.328 24.436C15.328 24.22 15.4 24.028 15.544 23.86H15.724C15.7 23.812 15.688 23.74 15.688 23.644C15.688 23.5 15.736 23.38 15.832 23.284L15.652 23.176C15.772 23.008 15.832 22.828 15.832 22.636C15.832 22.42 15.868 22.216 15.94 22.024L16.228 21.844C16.18 21.796 16.18 21.58 16.228 21.196C16.3 20.788 16.384 20.332 16.48 19.828C16.576 19.3 16.66 18.844 16.732 18.46C16.828 18.076 16.876 17.872 16.876 17.848L17.092 17.704V17.488L16.804 17.416L16.876 17.092C16.852 17.044 16.828 17.032 16.804 17.056C16.78 17.08 16.78 17.104 16.804 17.128L16.228 17.704L16.12 17.56C16.096 17.68 15.952 17.908 15.688 18.244C15.424 18.58 15.148 18.928 14.86 19.288C14.596 19.648 14.416 19.936 14.32 20.152H14.032C14.128 20.032 14.092 19.972 13.924 19.972C13.78 19.948 13.756 20.032 13.852 20.224H14.14V20.332L13.852 20.728H13.636V21.016C13.468 21.184 13.324 21.376 13.204 21.592C13.108 21.784 12.988 21.976 12.844 22.168C12.772 22.192 12.616 22.372 12.376 22.708C12.16 23.044 11.896 23.464 11.584 23.968C11.296 24.448 11.008 24.952 10.72 25.48C10.432 26.008 10.192 26.476 10 26.884C9.808 27.268 9.7 27.532 9.676 27.676H9.28C9.328 27.7 9.364 27.76 9.388 27.856C9.412 27.928 9.46 27.964 9.532 27.964C9.508 28.132 9.436 28.3 9.316 28.468C9.196 28.636 9.064 28.78 8.92 28.9C8.992 28.996 8.968 29.236 8.848 29.62C8.728 30.028 8.656 30.316 8.632 30.484C8.512 30.46 8.476 30.508 8.524 30.628C8.572 30.772 8.548 30.796 8.452 30.7L8.344 30.988C8.392 31.132 8.416 31.24 8.416 31.312C8.416 31.48 8.368 31.648 8.272 31.816C8.2 31.984 8.116 32.14 8.02 32.284C8.14 32.5 8.2 32.704 8.2 32.896C8.2 33.04 8.164 33.184 8.092 33.328C8.044 33.472 7.972 33.64 7.876 33.832L8.056 33.868L8.02 33.94C8.14 34.228 8.2 34.552 8.2 34.912C8.2 35.008 8.2 35.104 8.2 35.2C8.2 35.32 8.188 35.44 8.164 35.56L8.452 35.848C8.38 35.944 8.344 36.076 8.344 36.244C8.656 36.556 8.92 36.928 9.136 37.36C9.376 37.816 9.712 38.104 10.144 38.224ZM26.3721 28.468C25.6761 28.492 25.1001 28.252 24.6441 27.748C24.6921 26.956 25.0281 26.428 25.6521 26.164C26.2761 25.9 26.9481 25.78 27.6681 25.804L27.7041 25.912V26.02C27.5601 26.092 27.4521 26.224 27.3801 26.416C27.4761 26.416 27.5121 26.416 27.4881 26.416C27.4881 26.416 27.5121 26.452 27.5601 26.524C27.4881 26.596 27.3921 26.728 27.2721 26.92H27.1641C27.1641 26.8 27.1641 26.752 27.1641 26.776C27.1881 26.776 27.1521 26.74 27.0561 26.668C26.9841 26.788 26.9481 26.908 26.9481 27.028C27.0681 26.98 27.1521 26.98 27.2001 27.028C27.1761 27.1 27.1401 27.172 27.0921 27.244C27.0681 27.292 27.0321 27.34 26.9841 27.388H26.7681V27.64C26.7681 27.784 26.7321 27.964 26.6601 28.18C26.6121 28.204 26.5641 28.216 26.5161 28.216C26.4681 28.24 26.4201 28.252 26.3721 28.252V28.468ZM50.9717 32.428C50.4437 32.428 49.9277 32.416 49.4237 32.392C48.9197 32.368 48.5357 32.368 48.2717 32.392L48.4157 32.32C48.0317 32.344 47.5397 32.308 46.9397 32.212C46.3637 32.116 45.7997 31.972 45.2477 31.78C44.7197 31.588 44.3117 31.36 44.0237 31.096C44.0477 31.072 44.0597 31.024 44.0597 30.952C44.0597 30.832 43.9757 30.736 43.8077 30.664C43.6397 30.616 43.5197 30.652 43.4477 30.772L42.9797 30.448C43.0277 30.4 43.0517 30.352 43.0517 30.304C43.0517 30.232 43.0037 30.172 42.9077 30.124C42.8357 30.076 42.7757 30.088 42.7277 30.16C42.5597 29.8 42.3437 29.464 42.0797 29.152C41.8397 28.864 41.6957 28.516 41.6477 28.108L41.3957 28.18C41.3717 27.916 41.3117 27.676 41.2157 27.46C41.1197 27.22 41.0957 26.968 41.1437 26.704L41.0717 26.776C41.0477 26.752 41.0237 26.704 40.9997 26.632C40.9757 26.56 40.9997 26.524 41.0717 26.524C41.0237 26.26 40.9637 26.02 40.8917 25.804C40.8437 25.564 40.8197 25.324 40.8197 25.084C40.8197 24.772 40.9037 24.472 41.0717 24.184C41.0237 24.184 40.9757 24.184 40.9277 24.184C40.8797 24.16 40.8677 24.136 40.8917 24.112C40.9397 23.992 40.9877 23.92 41.0357 23.896C41.0357 23.896 41.0237 23.896 40.9997 23.896C40.9277 23.896 40.8797 23.8 40.8557 23.608C41.0717 23.488 41.1797 23.272 41.1797 22.96C41.1797 22.84 41.1677 22.732 41.1437 22.636C41.1197 22.54 41.0957 22.444 41.0717 22.348H41.1437C41.2637 22.348 41.2997 22.276 41.2517 22.132C41.2277 21.964 41.1677 21.928 41.0717 22.024L41.6477 20.044C41.6477 20.044 41.6477 20.056 41.6477 20.08C41.6477 20.08 41.6597 20.08 41.6837 20.08C41.7317 20.08 41.7797 19.984 41.8277 19.792C41.8757 19.6 41.9237 19.54 41.9717 19.612V19.144C42.0917 19.24 42.1517 19.204 42.1517 19.036C42.1517 18.868 42.0917 18.844 41.9717 18.964L42.1877 18.532H42.3677L42.4397 17.884C42.4877 17.908 42.5477 17.92 42.6197 17.92C42.7397 17.92 42.7997 17.836 42.7997 17.668L42.7637 17.164C43.0037 16.828 43.2317 16.492 43.4477 16.156C43.6637 15.796 43.8557 15.436 44.0237 15.076L44.3117 15.22L44.5277 14.716L44.5637 14.788L45.8237 13.096V13.06L45.9317 13.096L45.7517 12.772L46.1477 12.268C46.3397 12.22 46.4597 12.184 46.5077 12.16C46.5797 12.136 46.6157 11.992 46.6157 11.728L47.0477 11.512V11.332C47.0957 11.284 47.1797 11.284 47.2997 11.332C47.4197 11.356 47.3957 11.284 47.2277 11.116L48.0197 10.828C48.0917 10.78 48.1157 10.708 48.0917 10.612C48.0677 10.492 48.0317 10.42 47.9837 10.396C48.2477 10.276 48.4757 10.12 48.6677 9.928C48.8597 9.712 49.0397 9.508 49.2077 9.316L49.6397 9.244C49.6877 9.148 49.6397 9.1 49.4957 9.1C49.8077 9.004 50.0357 8.872 50.1797 8.704C50.3477 8.512 50.5277 8.332 50.7197 8.164C50.9117 7.972 51.1997 7.864 51.5837 7.84L51.3677 7.768H51.4397C51.6557 7.624 51.9077 7.492 52.1957 7.372C52.4837 7.228 52.7597 7.18 53.0237 7.228L53.2397 6.832L53.1677 6.76C53.6957 6.496 54.2237 6.232 54.7517 5.968C55.3037 5.704 55.8677 5.5 56.4437 5.356L56.7677 5.536L58.5677 4.744L59.0357 4.888V4.744L60.3317 4.528L60.4397 4.6C60.7037 4.456 61.0757 4.384 61.5557 4.384C62.0837 4.384 62.6357 4.444 63.2117 4.564C63.7877 4.66 64.2437 4.768 64.5797 4.888V4.456L65.0837 4.384C65.1317 4.12 65.1557 3.856 65.1557 3.592C65.1797 3.304 65.2277 3.028 65.2997 2.764C65.3237 2.788 65.3477 2.812 65.3717 2.836C65.3957 2.86 65.4077 2.872 65.4077 2.872C65.5037 2.872 65.5517 2.776 65.5517 2.584C65.5517 2.368 65.5397 2.248 65.5157 2.224C65.7797 1.96 65.9477 1.672 66.0197 1.36C65.9717 1.264 65.9477 1.18 65.9477 1.108C65.9477 0.987999 65.9957 0.879999 66.0917 0.783998L66.5957 0.927999C66.6197 0.927999 66.6437 1.024 66.6677 1.216C66.7157 1.408 66.7397 1.648 66.7397 1.936C66.7397 2.032 66.7277 2.152 66.7037 2.296C66.7037 2.416 66.6917 2.536 66.6677 2.656L66.4517 2.764L66.1637 3.736L65.9477 3.88L65.5877 4.744C65.5637 4.696 65.5277 4.696 65.4797 4.744C65.4557 4.768 65.4197 4.768 65.3717 4.744L65.4437 5.968C65.4197 5.992 65.3957 6.004 65.3717 6.004C65.3477 6.004 65.3117 5.956 65.2637 5.86C65.2157 5.74 65.1917 5.704 65.1917 5.752V6.256L64.7957 6.76C64.7717 6.712 64.7597 6.736 64.7597 6.832C64.7597 6.928 64.7477 7 64.7237 7.048C64.5077 7.096 64.3397 7.216 64.2197 7.408C64.1237 7.576 64.0157 7.744 63.8957 7.912C63.7757 8.056 63.5837 8.128 63.3197 8.128L63.2117 8.56L62.9237 8.74L62.9957 8.812C62.8037 8.836 62.6237 8.92 62.4557 9.064C62.3117 9.184 62.2037 9.34 62.1317 9.532L61.8077 9.424C61.8077 9.664 61.6757 9.904 61.4117 10.144C61.1477 10.36 60.9197 10.516 60.7277 10.612C60.7277 10.612 60.7157 10.612 60.6917 10.612C60.6917 10.588 60.6797 10.576 60.6557 10.576C60.5837 10.576 60.4877 10.624 60.3677 10.72C60.2477 10.816 60.1997 10.888 60.2237 10.936C60.0077 11.032 59.8037 11.164 59.6117 11.332C59.4197 11.476 59.1917 11.572 58.9277 11.62C58.9037 11.332 58.9637 11.116 59.1077 10.972C59.2517 10.828 59.4077 10.684 59.5757 10.54C59.7677 10.396 59.8877 10.18 59.9357 9.892L60.4397 9.532V9.244C60.6797 9.1 60.9077 8.86 61.1237 8.524C61.3397 8.188 61.5557 7.876 61.7717 7.588C62.0117 7.3 62.2637 7.144 62.5277 7.12L62.4917 6.94C62.3717 6.844 62.2397 6.784 62.0957 6.76C61.9517 6.736 61.8077 6.724 61.6637 6.724C61.4957 6.724 61.3277 6.736 61.1597 6.76C60.9917 6.784 60.8117 6.796 60.6197 6.796C60.3557 6.796 60.1277 6.748 59.9357 6.652L59.7197 6.94C59.6237 6.916 59.5277 6.904 59.4317 6.904C59.3357 6.88 59.2397 6.868 59.1437 6.868C58.5677 6.868 57.9917 7.012 57.4157 7.3C56.8637 7.588 56.2997 7.876 55.7237 8.164C55.1717 8.452 54.6077 8.608 54.0317 8.632V8.92C53.7917 9.016 53.4917 9.184 53.1317 9.424C52.7717 9.664 52.4237 9.892 52.0877 10.108C51.7517 10.3 51.4877 10.372 51.2957 10.324L50.5757 10.936V11.188L49.8557 11.512L49.7837 11.8L49.2797 12.124L48.9917 12.304H49.1357L48.4157 12.628C48.3677 12.652 48.3917 12.688 48.4877 12.736C48.6077 12.76 48.6797 12.772 48.7037 12.772L47.6957 13.492L47.7317 13.564L47.5517 13.708C47.5277 13.708 47.5157 13.684 47.5157 13.636C47.5157 13.588 47.5037 13.564 47.4797 13.564C47.4797 13.804 47.3957 14.02 47.2277 14.212C47.0837 14.38 46.8797 14.476 46.6157 14.5L46.6877 14.788L46.3997 15.148C46.2797 15.124 46.1117 15.244 45.8957 15.508C45.6797 15.748 45.5237 15.916 45.4277 16.012L45.5357 16.156H45.4277C45.1637 16.396 45.0077 16.6 44.9597 16.768C44.9117 16.936 44.8757 17.044 44.8517 17.092C44.8517 17.116 44.7917 17.152 44.6717 17.2C44.5517 17.224 44.5157 17.284 44.5637 17.38L44.0597 17.668L43.9517 18.532C43.9277 18.556 43.8917 18.568 43.8437 18.568C43.7477 18.568 43.6757 18.508 43.6277 18.388C43.6037 18.268 43.5677 18.268 43.5197 18.388C43.4717 18.484 43.4477 18.544 43.4477 18.568V18.748C43.4477 18.796 43.4357 18.856 43.4117 18.928C43.4117 18.976 43.3877 19.06 43.3397 19.18H43.5557L43.2677 19.684H42.9797L42.7277 20.44L42.9437 20.476C42.7997 20.548 42.6677 20.668 42.5477 20.836C42.4277 20.98 42.3317 21.124 42.2597 21.268L42.4757 21.628L42.1517 22.312C42.1757 22.336 42.1877 22.372 42.1877 22.42C42.1877 22.516 42.1157 22.624 41.9717 22.744C41.8277 22.864 41.7557 22.984 41.7557 23.104H42.0437L41.9357 24.508L41.4677 25.012H41.8637C41.9117 25.468 41.9117 25.9 41.8637 26.308L42.1517 26.704L41.9717 27.1L42.8357 27.856L42.9437 28.504L43.0517 28.108L43.8437 28.792C43.7477 28.84 43.7117 28.876 43.7357 28.9C43.7837 28.948 43.7957 28.984 43.7717 29.008L44.5277 29.08L44.5637 29.44C44.9237 29.464 45.2717 29.5 45.6077 29.548C45.9677 29.596 46.3277 29.632 46.6877 29.656L46.8317 29.8H48.3437C48.3917 29.872 48.5717 29.908 48.8837 29.908C49.3157 29.908 49.8677 29.872 50.5397 29.8C51.2357 29.728 51.8717 29.644 52.4477 29.548C53.0477 29.476 53.4197 29.44 53.5637 29.44L53.6717 29.584L53.5997 29.476L53.6717 29.44L54.8957 29.188C54.9437 29.284 54.9677 29.32 54.9677 29.296H55.0037C55.0517 29.296 55.3277 29.2 55.8317 29.008C55.7837 28.96 55.7837 28.948 55.8317 28.972C55.9037 29.02 55.9637 29.044 56.0117 29.044C56.0597 29.044 56.0357 28.996 55.9397 28.9C56.5157 28.9 57.0677 28.78 57.5957 28.54C58.1477 28.324 58.7237 28.204 59.3237 28.18V28.072C59.6117 28.096 59.8997 28.048 60.1877 27.928C60.4997 27.784 60.7757 27.664 61.0157 27.568C61.0637 27.568 61.1117 27.58 61.1597 27.604C61.2077 27.604 61.2557 27.604 61.3037 27.604C61.5437 27.604 61.6517 27.532 61.6277 27.388L62.7797 27.1V26.992C63.0437 26.824 63.3317 26.704 63.6437 26.632C63.9557 26.56 64.2677 26.512 64.5797 26.488H64.2197C64.7237 26.416 65.2997 26.248 65.9477 25.984C66.5957 25.72 67.1717 25.528 67.6757 25.408V25.12C67.8197 25.168 67.9517 25.192 68.0717 25.192C68.4317 25.192 68.6117 25.036 68.6117 24.724C68.6597 24.676 68.7437 24.616 68.8637 24.544C69.0077 24.472 69.1157 24.496 69.1877 24.616L69.5477 24.22L70.0517 24.292C70.1717 24.244 70.1837 24.196 70.0877 24.148C69.9917 24.1 69.9557 24.052 69.9797 24.004C70.0037 23.98 70.0277 23.968 70.0517 23.968C70.0997 23.968 70.1477 23.992 70.1957 24.04C70.2677 24.088 70.3157 24.112 70.3397 24.112C70.4117 24.112 70.4117 24.052 70.3397 23.932L70.2677 23.896H70.8437L71.8517 22.996L72.3557 22.924C72.2597 22.876 72.2117 22.852 72.2117 22.852L72.4997 22.816L72.4277 22.708L72.9317 22.636L73.3277 22.312C73.2797 22.264 73.2557 22.228 73.2557 22.204C73.2557 22.108 73.3157 22.06 73.4357 22.06C73.6037 22.06 73.6757 22.18 73.6517 22.42C73.6277 22.516 73.5077 22.624 73.2917 22.744C73.0757 22.864 72.9317 22.948 72.8597 22.996L72.9317 23.14L72.5717 23.428L72.4997 23.32C72.4997 23.536 72.3797 23.764 72.1397 24.004C71.8997 24.22 71.6357 24.4 71.3477 24.544C71.0597 24.688 70.8437 24.772 70.6997 24.796L70.4837 25.228C69.8357 25.516 69.2357 25.936 68.6837 26.488L68.1797 26.524L68.1077 26.776L67.5317 26.884C67.5317 26.98 67.4597 27.088 67.3157 27.208C67.1957 27.304 67.0997 27.304 67.0277 27.208L66.6677 27.604C66.7157 27.532 66.6677 27.508 66.5237 27.532C66.4037 27.556 66.3797 27.616 66.4517 27.712C66.3077 27.76 65.9597 27.904 65.4077 28.144C64.8557 28.384 64.2437 28.648 63.5717 28.936C62.9237 29.224 62.3237 29.464 61.7717 29.656C61.2197 29.872 60.8717 29.98 60.7277 29.98V30.232L59.5397 30.484L59.6477 30.592L58.8197 30.664C58.7957 30.76 58.7357 30.82 58.6397 30.844C58.5437 30.892 58.4477 30.916 58.3517 30.916C58.2317 30.916 58.1237 30.916 58.0277 30.916C57.9317 30.916 57.9317 30.976 58.0277 31.096C57.2357 31.144 56.4917 31.312 55.7957 31.6C55.1237 31.888 54.4037 32.032 53.6357 32.032C53.5157 32.032 53.3837 32.02 53.2397 31.996C53.1197 31.996 52.9997 31.984 52.8797 31.96C52.8317 32.056 52.8557 32.128 52.9517 32.176C52.7837 32.272 52.5197 32.332 52.1597 32.356C51.7997 32.404 51.4037 32.428 50.9717 32.428ZM80.7437 26.524C80.5757 26.548 80.3717 26.476 80.1317 26.308C79.8917 26.116 79.7237 25.96 79.6277 25.84L79.6637 25.516C79.6397 25.516 79.6157 25.528 79.5917 25.552C79.5677 25.576 79.5437 25.588 79.5197 25.588L79.6637 24.688C79.7117 24.688 79.7237 24.628 79.6997 24.508C79.6997 24.388 79.6997 24.316 79.6997 24.292L79.6637 24.256L79.6997 23.644H79.8437L79.6637 23.464L79.7357 22.924L79.8077 22.888L79.7357 22.78L79.8077 22.384L79.9517 22.312C79.9517 22.264 79.9277 22.216 79.8797 22.168C79.8557 22.096 79.8437 22.036 79.8437 21.988C79.8437 21.892 79.9277 21.76 80.0957 21.592L79.9517 21.52L80.1677 21.34L79.9877 21.268C80.1077 21.172 80.1317 21.088 80.0597 21.016C80.0117 20.92 80.0237 20.824 80.0957 20.728L80.3477 20.368L80.1677 20.188L80.2037 19.972C80.3237 19.972 80.3837 19.936 80.3837 19.864C80.3837 19.816 80.3717 19.756 80.3477 19.684C80.3237 19.612 80.3117 19.54 80.3117 19.468H80.3477L80.3837 19.54L80.4917 18.82L80.5637 18.784V18.244H80.7437L80.6357 17.848L80.5997 17.884L79.8437 19.108L79.6277 19.144L79.3397 19.54L79.5197 19.612L79.4117 19.792H79.1237C79.1717 19.888 79.1957 19.96 79.1957 20.008C79.1957 20.104 79.1357 20.188 79.0157 20.26C78.8957 20.308 78.8117 20.344 78.7637 20.368L78.8357 20.584L78.5477 21.052L78.3677 20.98C78.3677 20.98 78.3557 21.004 78.3317 21.052C78.3317 21.1 78.3077 21.124 78.2597 21.124L78.0797 21.052L78.0077 21.34L78.1877 21.376C78.0917 21.472 78.0197 21.556 77.9717 21.628C77.9237 21.7 77.8037 21.736 77.6117 21.736C77.5877 21.808 77.6117 21.88 77.6837 21.952C77.4917 22.216 77.2757 22.48 77.0357 22.744C76.8197 23.008 76.5797 23.236 76.3157 23.428H76.2077L75.9197 23.716L75.7757 23.644L75.7037 23.896L75.0197 24.184L74.9477 24.364L74.6957 24.292L74.5517 24.508H74.4077C73.8317 24.508 73.3517 24.352 72.9677 24.04C72.8957 23.896 72.8597 23.728 72.8597 23.536C72.8117 23.536 72.7757 23.56 72.7517 23.608C72.7277 23.632 72.7037 23.656 72.6797 23.68L72.4637 22.78L72.5717 22.564L72.4997 22.492L72.5357 22.204H72.6437L72.9317 20.908C72.9557 20.908 72.9677 20.92 72.9677 20.944C72.9917 20.968 73.0157 20.98 73.0397 20.98C73.0877 20.98 73.1117 20.944 73.1117 20.872C73.1117 20.8 73.0997 20.752 73.0757 20.728L73.0037 20.764C73.0517 20.404 73.2317 20.14 73.5437 19.972C73.4957 19.924 73.4717 19.864 73.4717 19.792C73.4717 19.72 73.4837 19.66 73.5077 19.612C73.5557 19.54 73.5917 19.468 73.6157 19.396L73.7237 19.432V19.396L73.6877 19.324L73.8317 19.252C73.8557 19.252 73.8437 19.216 73.7957 19.144C73.7717 19.072 73.8077 19.084 73.9037 19.18V18.928H74.1197C74.1917 18.832 74.2517 18.724 74.2997 18.604C74.3477 18.484 74.3957 18.364 74.4437 18.244H74.8037L74.6957 17.992L74.8757 17.776L75.0917 17.848L75.1997 17.38L75.7757 16.948L75.5957 16.84L75.8117 16.768L75.8477 16.984C75.8477 16.72 75.9557 16.528 76.1717 16.408H76.2077L76.2437 16.588L76.2797 16.516L76.2437 16.336L76.6397 16.048L76.6757 16.192C76.6997 15.952 76.8317 15.772 77.0717 15.652C77.3117 15.508 77.5637 15.376 77.8277 15.256C78.0917 15.136 78.2357 15.004 78.2597 14.86L78.5477 14.896C78.5717 14.872 78.5837 14.836 78.5837 14.788C78.6077 14.716 78.5957 14.68 78.5477 14.68C78.7877 14.656 79.0637 14.572 79.3757 14.428H79.7357L79.5557 14.32L79.5917 14.284C80.0237 14.164 80.4677 14.104 80.9237 14.104C81.2357 14.104 81.5237 14.2 81.7877 14.392L82.5077 14.68C82.5317 14.704 82.5077 14.716 82.4357 14.716C82.3877 14.716 82.3637 14.74 82.3637 14.788C82.3637 14.812 82.3997 14.848 82.4717 14.896C82.5437 14.92 82.6037 14.932 82.6517 14.932L82.6877 14.824C82.7117 14.824 82.7237 14.872 82.7237 14.968C82.7477 15.04 82.7717 15.052 82.7957 15.004L83.0837 15.292H82.9397L82.8677 16.336H82.7237L82.6517 16.516L82.7597 16.768C82.7597 16.792 82.7477 16.84 82.7237 16.912C82.6997 16.96 82.6877 16.948 82.6877 16.876V16.804L82.5797 16.84C82.6037 16.888 82.6157 16.96 82.6157 17.056C82.6157 17.128 82.6037 17.212 82.5797 17.308C82.5797 17.38 82.5677 17.464 82.5437 17.56C82.4477 17.56 82.3877 17.572 82.3637 17.596L82.2557 17.884C82.2317 17.98 82.2437 18.04 82.2917 18.064C82.3397 18.064 82.3637 18.076 82.3637 18.1L82.2917 18.244C82.2917 18.34 82.2917 18.436 82.2917 18.532C82.3157 18.628 82.3157 18.736 82.2917 18.856H82.0037L81.6077 18.892C81.7037 19.036 81.8117 19.156 81.9317 19.252C82.0517 19.324 82.1117 19.36 82.1117 19.36C82.1597 19.408 82.1717 19.456 82.1477 19.504C82.0997 19.624 82.0517 19.744 82.0037 19.864C81.9557 19.984 81.9077 20.104 81.8597 20.224L81.9677 20.26C81.9917 20.284 81.9797 20.296 81.9317 20.296C81.9077 20.296 81.9077 20.308 81.9317 20.332L81.9677 20.368C81.9917 20.392 82.0037 20.428 82.0037 20.476C82.0037 20.572 81.9677 20.668 81.8957 20.764C81.8237 20.86 81.7637 20.968 81.7157 21.088H81.8237C81.8237 21.28 81.8117 21.544 81.7877 21.88C81.7637 22.192 81.6917 22.42 81.5717 22.564H81.5357V22.384H81.3557L81.6077 22.744C81.5117 23.056 81.4517 23.392 81.4277 23.752C81.4037 24.088 81.3677 24.424 81.3197 24.76L81.5717 25.084H81.6077V24.832L81.8237 24.688H82.0037L82.0757 24.94L82.1477 24.508C82.1477 24.484 82.1477 24.472 82.1477 24.472C82.1717 24.472 82.1837 24.472 82.1837 24.472H82.2557C82.3037 24.304 82.3157 24.184 82.2917 24.112C82.4357 23.92 82.6037 23.668 82.7957 23.356C83.0117 23.02 83.2157 22.696 83.4077 22.384C83.5997 22.048 83.7197 21.784 83.7677 21.592C83.8157 21.592 83.8517 21.616 83.8757 21.664C83.8997 21.712 83.9237 21.736 83.9477 21.736C83.9717 21.736 83.9717 21.688 83.9477 21.592C83.9477 21.472 83.9237 21.424 83.8757 21.448C83.9477 21.352 83.9957 21.244 84.0197 21.124C84.0437 20.98 84.1037 20.908 84.1997 20.908C84.3197 20.908 84.3797 20.944 84.3797 21.016C84.3797 21.064 84.3677 21.124 84.3437 21.196C84.3197 21.244 84.3077 21.292 84.3077 21.34L84.2717 22.096L84.0557 22.276L84.1277 22.312H84.1637L84.0557 22.384L84.1637 22.492H84.0557C84.0557 22.612 84.0317 22.732 83.9837 22.852C83.9597 22.972 83.9237 23.092 83.8757 23.212L83.6597 23.284L83.7317 23.428L83.5517 23.68L83.3357 23.716L82.8677 24.904L82.6517 24.868L82.6877 25.156L81.7517 26.236L81.5717 26.2L81.5357 26.416L81.3917 26.524H80.7437ZM74.2277 23.284H74.2997L75.0917 22.888C75.1397 22.936 75.1517 22.96 75.1277 22.96C75.1037 22.96 75.0917 22.96 75.0917 22.96C75.0917 23.032 75.1157 23.092 75.1637 23.14C75.2117 23.164 75.2477 23.176 75.2717 23.176L75.1997 22.816C75.2477 22.672 75.3437 22.636 75.4877 22.708L75.4517 22.78L75.7037 22.672H75.5237C75.4997 22.6 75.5237 22.564 75.5957 22.564L76.1717 22.42C76.1957 22.396 76.1597 22.384 76.0637 22.384C75.9677 22.36 75.9197 22.336 75.9197 22.312L76.1357 22.204C76.3277 22.108 76.4837 22 76.6037 21.88C76.7237 21.76 76.7837 21.7 76.7837 21.7C76.8317 21.772 76.9037 21.808 76.9997 21.808H77.0357V21.34L77.2877 21.088L77.4317 21.124L77.3957 20.944L77.6837 20.836C77.7317 20.62 77.8397 20.464 78.0077 20.368C78.1757 20.248 78.3077 20.116 78.4037 19.972H78.3317C78.3797 19.852 78.4757 19.78 78.6197 19.756C78.7637 19.708 78.8477 19.612 78.8717 19.468L78.7997 19.324L79.1957 19L79.1237 18.964C79.1717 18.916 79.1957 18.868 79.1957 18.82C79.2197 18.748 79.2797 18.724 79.3757 18.748L79.5557 18.784V18.424L79.6997 18.172H79.9877C80.0357 18.028 79.9877 17.956 79.8437 17.956L80.3477 17.272L80.5637 17.38V17.308L80.3477 17.236L80.4917 17.02L80.6357 16.984L80.6717 16.948C80.5997 16.948 80.5757 16.924 80.5997 16.876C80.6237 16.804 80.6717 16.78 80.7437 16.804L80.7797 16.516L80.9597 16.444H80.8877L80.9597 16.264H81.2117L81.1397 15.724L81.2117 15.652L81.1037 15.544C81.0557 15.712 80.9357 15.808 80.7437 15.832C80.5517 15.856 80.3837 15.868 80.2397 15.868C80.2877 15.892 80.2997 15.94 80.2757 16.012C80.2517 16.06 80.2157 16.072 80.1677 16.048L79.9517 15.94H79.8437L79.9517 16.192L79.6277 16.12L79.6997 16.264H79.5197V16.408L79.1957 16.624C79.1717 16.624 79.0637 16.612 78.8717 16.588C78.7037 16.564 78.6677 16.6 78.7637 16.696H78.8357C78.8357 16.816 78.7997 16.864 78.7277 16.84C78.6557 16.816 78.6077 16.804 78.5837 16.804L78.6557 16.84C78.1997 17.056 77.7917 17.368 77.4317 17.776C77.4797 17.8 77.4677 17.836 77.3957 17.884C77.3477 17.932 77.2997 17.92 77.2517 17.848V18.064L77.1797 17.992C77.1797 18.112 77.1077 18.22 76.9637 18.316C76.8197 18.388 76.6877 18.448 76.5677 18.496C76.4957 18.64 76.4117 18.784 76.3157 18.928C76.2197 19.072 76.1117 19.18 75.9917 19.252L75.9197 19.216L75.5237 19.468V19.576C75.5237 19.816 75.4517 20.032 75.3077 20.224C75.1877 20.392 75.0557 20.572 74.9117 20.764L74.8037 20.656L74.6957 21.124H74.4437V21.592H74.1197C74.0957 21.592 74.0957 21.616 74.1197 21.664C74.1437 21.712 74.1797 21.748 74.2277 21.772C74.2037 21.964 74.1437 22.156 74.0477 22.348C73.9757 22.516 73.9277 22.696 73.9037 22.888H74.0837C74.0357 23.08 74.1077 23.164 74.2997 23.14L74.2277 23.284ZM74.2997 21.808C74.2997 21.832 74.2757 21.82 74.2277 21.772V21.736L74.2997 21.772V21.808ZM90.9564 26.056H90.1644L90.0924 25.84C89.9724 25.84 89.8404 25.852 89.6964 25.876C89.5524 25.876 89.4204 25.864 89.3004 25.84C89.1804 25.552 89.0124 25.324 88.7964 25.156C88.6044 24.964 88.4844 24.688 88.4364 24.328L88.5804 24.4C88.4604 24.088 88.3764 23.776 88.3284 23.464C88.2804 23.152 88.2444 22.84 88.2204 22.528C88.1484 22.456 88.1004 22.372 88.0764 22.276C88.0764 22.156 88.0764 22.048 88.0764 21.952C88.0764 21.928 88.0644 21.916 88.0404 21.916C88.0404 21.916 88.0404 21.904 88.0404 21.88C88.0404 21.784 88.0764 21.676 88.1484 21.556C88.2204 21.412 88.2204 21.256 88.1484 21.088H88.0044C88.0044 21.016 87.9924 20.908 87.9684 20.764C87.9684 20.596 87.9684 20.428 87.9684 20.26C87.9684 20.068 87.9804 19.876 88.0044 19.684C88.0284 19.468 88.0524 19.312 88.0764 19.216L88.2924 19.072V19.036C88.2924 18.94 88.2324 18.868 88.1124 18.82C88.0164 18.772 88.0044 18.664 88.0764 18.496C88.1244 18.4 88.1484 18.22 88.1484 17.956C88.1724 17.692 88.1844 17.44 88.1844 17.2C88.1844 17.056 88.1844 16.924 88.1844 16.804C88.1844 16.684 88.1724 16.6 88.1484 16.552C87.8604 16.624 87.5604 16.6 87.2484 16.48C86.9604 16.336 86.6844 16.24 86.4204 16.192C86.3964 16.36 86.3364 16.468 86.2404 16.516C86.1444 16.54 86.0364 16.6 85.9164 16.696H86.0604L85.9884 17.128H86.0604L86.1324 17.344C86.0364 17.416 85.9404 17.488 85.8444 17.56C85.7484 17.632 85.7724 17.728 85.9164 17.848L85.7004 18.136L85.7724 18.28C85.7004 18.4 85.6284 18.496 85.5564 18.568C85.5084 18.616 85.4844 18.688 85.4844 18.784C85.4844 18.904 85.5084 19 85.5564 19.072C85.5324 19.096 85.4844 19.096 85.4124 19.072C85.3644 19.024 85.3404 18.976 85.3404 18.928C85.3164 19.096 85.2924 19.252 85.2684 19.396C85.2444 19.54 85.2444 19.696 85.2684 19.864L85.0524 19.936L85.1244 20.08L84.6924 20.368C84.7644 20.584 84.8004 20.728 84.8004 20.8C84.8004 20.92 84.7644 21.088 84.6924 21.304L84.3324 21.376L84.4764 21.664L84.1884 21.88L84.2604 22.096C84.1884 22.264 84.1164 22.408 84.0444 22.528H83.9004L83.8284 22.24H83.7564V22.384L83.8284 22.672C83.8044 22.696 83.7564 22.72 83.6844 22.744C83.6124 22.744 83.5884 22.768 83.6124 22.816L83.8284 22.888C83.6844 22.912 83.6004 22.948 83.5764 22.996C83.5764 23.044 83.5164 23.08 83.3964 23.104C83.3964 22.984 83.3724 22.9 83.3244 22.852C83.2764 22.78 83.2284 22.696 83.1804 22.6C83.2284 22.552 83.3004 22.42 83.3964 22.204C83.5164 21.988 83.6124 21.76 83.6844 21.52C83.7804 21.256 83.8284 21.088 83.8284 21.016L84.1164 20.872V20.368H84.3324L84.1884 20.26C84.3084 20.212 84.3924 20.032 84.4404 19.72C84.4884 19.408 84.5964 19.168 84.7644 19L84.8364 19.216C84.8364 18.424 85.0524 17.728 85.4844 17.128L85.3404 16.984C85.4604 16.864 85.5444 16.684 85.5924 16.444C85.6404 16.204 85.6764 16 85.7004 15.832C85.4844 15.76 85.3884 15.676 85.4124 15.58C85.4364 15.484 85.4124 15.352 85.3404 15.184L85.2684 15.256C85.1004 15.016 85.0164 14.8 85.0164 14.608C85.0164 14.488 85.0404 14.368 85.0884 14.248C85.1364 14.104 85.1844 13.948 85.2324 13.78C85.1604 13.66 85.1244 13.528 85.1244 13.384C85.1244 13.24 85.1484 13.096 85.1964 12.952H85.3404L85.4124 12.376C85.4604 12.328 85.4964 12.316 85.5204 12.34C85.5444 12.34 85.5804 12.304 85.6284 12.232V12.124C85.8684 11.452 86.0724 11.092 86.2404 11.044C86.4084 10.996 86.5164 10.936 86.5644 10.864C86.5884 10.888 86.6364 10.9 86.7084 10.9C86.7564 10.9 86.7924 10.888 86.8164 10.864C86.8644 10.816 86.9364 10.78 87.0324 10.756L87.1404 10.72C87.1884 10.696 87.1884 10.732 87.1404 10.828C87.1164 10.9 87.1164 10.936 87.1404 10.936L87.2844 10.72L87.5004 11.008C87.4044 11.128 87.3564 11.272 87.3564 11.44H87.5724L87.4284 12.34L87.2124 12.376C87.3324 12.424 87.3924 12.496 87.3924 12.592C87.3924 12.688 87.3564 12.784 87.2844 12.88C87.2124 12.976 87.1404 13.048 87.0684 13.096L87.2124 13.24L86.8524 13.312V13.384L87.1404 13.456H86.9964L86.8524 13.6L86.7084 14.32C86.6364 14.296 86.6124 14.344 86.6364 14.464C86.6844 14.584 86.6124 14.8 86.4204 15.112V15.256L86.4924 15.4C86.5404 15.52 86.6484 15.568 86.8164 15.544C87.0084 15.52 87.1644 15.52 87.2844 15.544C87.6924 15.136 88.0284 14.8 88.2924 14.536C88.5564 14.272 88.8444 14.08 89.1564 13.96C89.4924 13.816 89.9724 13.744 90.5964 13.744V13.78C90.5964 13.828 90.5844 13.888 90.5604 13.96C90.5364 14.008 90.5244 14.056 90.5244 14.104H90.9564V14.248L90.7404 14.32C90.7644 14.368 90.7764 14.428 90.7764 14.5C90.7764 14.572 90.7884 14.632 90.8124 14.68L90.5964 14.752C90.6444 14.8 90.6684 14.872 90.6684 14.968C90.6684 15.04 90.6444 15.112 90.5964 15.184C90.5724 15.256 90.5724 15.328 90.5964 15.4L90.3804 15.472C90.5004 15.568 90.5484 15.652 90.5244 15.724C90.5244 15.796 90.5244 15.916 90.5244 16.084L90.3084 16.12C90.3564 16.192 90.4044 16.324 90.4524 16.516L90.1644 16.552V16.768H90.3804V17.2L90.1644 17.272L90.3084 17.416L90.0924 17.488C90.1164 17.512 90.1764 17.56 90.2724 17.632C90.3684 17.68 90.3564 17.704 90.2364 17.704C90.1644 17.776 90.1524 17.812 90.2004 17.812C90.2484 17.812 90.2844 17.872 90.3084 17.992L90.0204 18.208C90.1884 18.256 90.2604 18.328 90.2364 18.424C90.2364 18.52 90.2364 18.64 90.2364 18.784L89.9484 18.856C90.1164 18.952 90.2004 19.06 90.2004 19.18C90.2004 19.3 90.1644 19.432 90.0924 19.576C90.0204 19.696 89.9724 19.816 89.9484 19.936C90.0204 19.936 90.0564 19.996 90.0564 20.116C90.0804 20.212 90.0924 20.272 90.0924 20.296C90.1884 20.392 90.2364 20.536 90.2364 20.728H89.9484C89.9724 20.776 90.0204 20.824 90.0924 20.872C90.1884 20.896 90.2604 20.92 90.3084 20.944C90.3084 21.064 90.3084 21.196 90.3084 21.34C90.3324 21.484 90.3444 21.616 90.3444 21.736C90.3444 21.928 90.3204 22.12 90.2724 22.312C90.2244 22.504 90.1404 22.696 90.0204 22.888H90.5244C90.5244 23.056 90.5604 23.236 90.6324 23.428C90.7284 23.596 90.8124 23.752 90.8844 23.896L90.6684 24.04C90.7884 24.04 90.8604 24.052 90.8844 24.076C90.9324 24.1 91.0044 24.148 91.1004 24.22L90.8844 24.4C91.0044 24.4 91.1004 24.412 91.1724 24.436C91.2444 24.436 91.3404 24.424 91.4604 24.4L91.3884 24.616H91.6044V24.4C91.6524 24.4 91.7364 24.412 91.8564 24.436C91.9764 24.436 92.0364 24.4 92.0364 24.328C91.9404 24.328 91.8804 24.316 91.8564 24.292C91.8324 24.268 91.8684 24.256 91.9644 24.256C92.2284 23.848 92.5164 23.476 92.8284 23.14C93.1404 22.804 93.3564 22.384 93.4764 21.88L93.8364 21.952C93.7884 21.736 93.8004 21.472 93.8724 21.16C93.9684 20.848 94.1124 20.572 94.3044 20.332C94.5204 20.092 94.7484 19.96 94.9884 19.936C94.9884 19.936 95.0004 19.948 95.0244 19.972C95.0724 19.996 95.0964 20.044 95.0964 20.116C95.0964 20.188 95.0604 20.296 94.9884 20.44C94.9164 20.464 94.8684 20.488 94.8444 20.512C94.8204 20.536 94.7844 20.572 94.7364 20.62C94.7364 20.692 94.7364 20.764 94.7364 20.836C94.7364 20.908 94.7484 20.968 94.7724 21.016L94.5564 21.088L94.6284 21.232C94.5324 21.328 94.4724 21.364 94.4484 21.34C94.4484 21.316 94.4364 21.4 94.4124 21.592C94.3884 22.072 94.2084 22.528 93.8724 22.96C93.5364 23.392 93.2844 23.752 93.1164 24.04V24.256C93.0204 24.424 92.8764 24.544 92.6844 24.616V24.904C92.6124 24.928 92.5284 24.952 92.4324 24.976C92.3604 25 92.3724 25.048 92.4684 25.12C92.2764 25.12 92.1324 25.156 92.0364 25.228C91.9644 25.276 91.8684 25.36 91.7484 25.48L91.8924 25.624C91.7964 25.648 91.6884 25.672 91.5684 25.696C91.4724 25.696 91.3644 25.696 91.2444 25.696L90.9564 26.056ZM101.837 26.524C101.669 26.548 101.465 26.476 101.225 26.308C100.985 26.116 100.817 25.96 100.721 25.84L100.757 25.516C100.733 25.516 100.709 25.528 100.685 25.552C100.661 25.576 100.637 25.588 100.613 25.588L100.757 24.688C100.805 24.688 100.817 24.628 100.793 24.508C100.793 24.388 100.793 24.316 100.793 24.292L100.757 24.256L100.793 23.644H100.937L100.757 23.464L100.829 22.924L100.901 22.888L100.829 22.78L100.901 22.384L101.045 22.312C101.045 22.264 101.021 22.216 100.973 22.168C100.949 22.096 100.937 22.036 100.937 21.988C100.937 21.892 101.021 21.76 101.189 21.592L101.045 21.52L101.261 21.34L101.081 21.268C101.201 21.172 101.225 21.088 101.153 21.016C101.105 20.92 101.117 20.824 101.189 20.728L101.441 20.368L101.261 20.188L101.297 19.972C101.417 19.972 101.477 19.936 101.477 19.864C101.477 19.816 101.465 19.756 101.441 19.684C101.417 19.612 101.405 19.54 101.405 19.468H101.441L101.477 19.54L101.585 18.82L101.657 18.784V18.244H101.837L101.729 17.848L101.693 17.884L100.937 19.108L100.721 19.144L100.433 19.54L100.613 19.612L100.505 19.792H100.217C100.265 19.888 100.289 19.96 100.289 20.008C100.289 20.104 100.229 20.188 100.109 20.26C99.9894 20.308 99.9054 20.344 99.8574 20.368L99.9294 20.584L99.6414 21.052L99.4614 20.98C99.4614 20.98 99.4494 21.004 99.4254 21.052C99.4254 21.1 99.4014 21.124 99.3534 21.124L99.1734 21.052L99.1014 21.34L99.2814 21.376C99.1854 21.472 99.1134 21.556 99.0654 21.628C99.0174 21.7 98.8974 21.736 98.7054 21.736C98.6814 21.808 98.7054 21.88 98.7774 21.952C98.5854 22.216 98.3694 22.48 98.1294 22.744C97.9134 23.008 97.6734 23.236 97.4094 23.428H97.3014L97.0134 23.716L96.8694 23.644L96.7974 23.896L96.1134 24.184L96.0414 24.364L95.7894 24.292L95.6454 24.508H95.5014C94.9254 24.508 94.4454 24.352 94.0614 24.04C93.9894 23.896 93.9534 23.728 93.9534 23.536C93.9054 23.536 93.8694 23.56 93.8454 23.608C93.8214 23.632 93.7974 23.656 93.7734 23.68L93.5574 22.78L93.6654 22.564L93.5934 22.492L93.6294 22.204H93.7374L94.0254 20.908C94.0494 20.908 94.0614 20.92 94.0614 20.944C94.0854 20.968 94.1094 20.98 94.1334 20.98C94.1814 20.98 94.2054 20.944 94.2054 20.872C94.2054 20.8 94.1934 20.752 94.1694 20.728L94.0974 20.764C94.1454 20.404 94.3254 20.14 94.6374 19.972C94.5894 19.924 94.5654 19.864 94.5654 19.792C94.5654 19.72 94.5774 19.66 94.6014 19.612C94.6494 19.54 94.6854 19.468 94.7094 19.396L94.8174 19.432V19.396L94.7814 19.324L94.9254 19.252C94.9494 19.252 94.9374 19.216 94.8894 19.144C94.8654 19.072 94.9014 19.084 94.9974 19.18V18.928H95.2134C95.2854 18.832 95.3454 18.724 95.3934 18.604C95.4414 18.484 95.4894 18.364 95.5374 18.244H95.8974L95.7894 17.992L95.9694 17.776L96.1854 17.848L96.2934 17.38L96.8694 16.948L96.6894 16.84L96.9054 16.768L96.9414 16.984C96.9414 16.72 97.0494 16.528 97.2654 16.408H97.3014L97.3374 16.588L97.3734 16.516L97.3374 16.336L97.7334 16.048L97.7694 16.192C97.7934 15.952 97.9254 15.772 98.1654 15.652C98.4054 15.508 98.6574 15.376 98.9214 15.256C99.1854 15.136 99.3294 15.004 99.3534 14.86L99.6414 14.896C99.6654 14.872 99.6774 14.836 99.6774 14.788C99.7014 14.716 99.6894 14.68 99.6414 14.68C99.8814 14.656 100.157 14.572 100.469 14.428H100.829L100.649 14.32L100.685 14.284C101.117 14.164 101.561 14.104 102.017 14.104C102.329 14.104 102.617 14.2 102.881 14.392L103.601 14.68C103.625 14.704 103.601 14.716 103.529 14.716C103.481 14.716 103.457 14.74 103.457 14.788C103.457 14.812 103.493 14.848 103.565 14.896C103.637 14.92 103.697 14.932 103.745 14.932L103.781 14.824C103.805 14.824 103.817 14.872 103.817 14.968C103.841 15.04 103.865 15.052 103.889 15.004L104.177 15.292H104.033L103.961 16.336H103.817L103.745 16.516L103.853 16.768C103.853 16.792 103.841 16.84 103.817 16.912C103.793 16.96 103.781 16.948 103.781 16.876V16.804L103.673 16.84C103.697 16.888 103.709 16.96 103.709 17.056C103.709 17.128 103.697 17.212 103.673 17.308C103.673 17.38 103.661 17.464 103.637 17.56C103.541 17.56 103.481 17.572 103.457 17.596L103.349 17.884C103.325 17.98 103.337 18.04 103.385 18.064C103.433 18.064 103.457 18.076 103.457 18.1L103.385 18.244C103.385 18.34 103.385 18.436 103.385 18.532C103.409 18.628 103.409 18.736 103.385 18.856H103.097L102.701 18.892C102.797 19.036 102.905 19.156 103.025 19.252C103.145 19.324 103.205 19.36 103.205 19.36C103.253 19.408 103.265 19.456 103.241 19.504C103.193 19.624 103.145 19.744 103.097 19.864C103.049 19.984 103.001 20.104 102.953 20.224L103.061 20.26C103.085 20.284 103.073 20.296 103.025 20.296C103.001 20.296 103.001 20.308 103.025 20.332L103.061 20.368C103.085 20.392 103.097 20.428 103.097 20.476C103.097 20.572 103.061 20.668 102.989 20.764C102.917 20.86 102.857 20.968 102.809 21.088H102.917C102.917 21.28 102.905 21.544 102.881 21.88C102.857 22.192 102.785 22.42 102.665 22.564H102.629V22.384H102.449L102.701 22.744C102.605 23.056 102.545 23.392 102.521 23.752C102.497 24.088 102.461 24.424 102.413 24.76L102.665 25.084H102.701V24.832L102.917 24.688H103.097L103.169 24.94L103.241 24.508C103.241 24.484 103.241 24.472 103.241 24.472C103.265 24.472 103.277 24.472 103.277 24.472H103.349C103.397 24.304 103.409 24.184 103.385 24.112C103.529 23.92 103.697 23.668 103.889 23.356C104.105 23.02 104.309 22.696 104.501 22.384C104.693 22.048 104.813 21.784 104.861 21.592C104.909 21.592 104.945 21.616 104.969 21.664C104.993 21.712 105.017 21.736 105.041 21.736C105.065 21.736 105.065 21.688 105.041 21.592C105.041 21.472 105.017 21.424 104.969 21.448C105.041 21.352 105.089 21.244 105.113 21.124C105.137 20.98 105.197 20.908 105.293 20.908C105.413 20.908 105.473 20.944 105.473 21.016C105.473 21.064 105.461 21.124 105.437 21.196C105.413 21.244 105.401 21.292 105.401 21.34L105.365 22.096L105.149 22.276L105.221 22.312H105.257L105.149 22.384L105.257 22.492H105.149C105.149 22.612 105.125 22.732 105.077 22.852C105.053 22.972 105.017 23.092 104.969 23.212L104.753 23.284L104.825 23.428L104.645 23.68L104.429 23.716L103.961 24.904L103.745 24.868L103.781 25.156L102.845 26.236L102.665 26.2L102.629 26.416L102.485 26.524H101.837ZM95.3214 23.284H95.3934L96.1854 22.888C96.2334 22.936 96.2454 22.96 96.2214 22.96C96.1974 22.96 96.1854 22.96 96.1854 22.96C96.1854 23.032 96.2094 23.092 96.2574 23.14C96.3054 23.164 96.3414 23.176 96.3654 23.176L96.2934 22.816C96.3414 22.672 96.4374 22.636 96.5814 22.708L96.5454 22.78L96.7974 22.672H96.6174C96.5934 22.6 96.6174 22.564 96.6894 22.564L97.2654 22.42C97.2894 22.396 97.2534 22.384 97.1574 22.384C97.0614 22.36 97.0134 22.336 97.0134 22.312L97.2294 22.204C97.4214 22.108 97.5774 22 97.6974 21.88C97.8174 21.76 97.8774 21.7 97.8774 21.7C97.9254 21.772 97.9974 21.808 98.0934 21.808H98.1294V21.34L98.3814 21.088L98.5254 21.124L98.4894 20.944L98.7774 20.836C98.8254 20.62 98.9334 20.464 99.1014 20.368C99.2694 20.248 99.4014 20.116 99.4974 19.972H99.4254C99.4734 19.852 99.5694 19.78 99.7134 19.756C99.8574 19.708 99.9414 19.612 99.9654 19.468L99.8934 19.324L100.289 19L100.217 18.964C100.265 18.916 100.289 18.868 100.289 18.82C100.313 18.748 100.373 18.724 100.469 18.748L100.649 18.784V18.424L100.793 18.172H101.081C101.129 18.028 101.081 17.956 100.937 17.956L101.441 17.272L101.657 17.38V17.308L101.441 17.236L101.585 17.02L101.729 16.984L101.765 16.948C101.693 16.948 101.669 16.924 101.693 16.876C101.717 16.804 101.765 16.78 101.837 16.804L101.873 16.516L102.053 16.444H101.981L102.053 16.264H102.305L102.233 15.724L102.305 15.652L102.197 15.544C102.149 15.712 102.029 15.808 101.837 15.832C101.645 15.856 101.477 15.868 101.333 15.868C101.381 15.892 101.393 15.94 101.369 16.012C101.345 16.06 101.309 16.072 101.261 16.048L101.045 15.94H100.937L101.045 16.192L100.721 16.12L100.793 16.264H100.613V16.408L100.289 16.624C100.265 16.624 100.157 16.612 99.9654 16.588C99.7974 16.564 99.7614 16.6 99.8574 16.696H99.9294C99.9294 16.816 99.8934 16.864 99.8214 16.84C99.7494 16.816 99.7014 16.804 99.6774 16.804L99.7494 16.84C99.2934 17.056 98.8854 17.368 98.5254 17.776C98.5734 17.8 98.5614 17.836 98.4894 17.884C98.4414 17.932 98.3934 17.92 98.3454 17.848V18.064L98.2734 17.992C98.2734 18.112 98.2014 18.22 98.0574 18.316C97.9134 18.388 97.7814 18.448 97.6614 18.496C97.5894 18.64 97.5054 18.784 97.4094 18.928C97.3134 19.072 97.2054 19.18 97.0854 19.252L97.0134 19.216L96.6174 19.468V19.576C96.6174 19.816 96.5454 20.032 96.4014 20.224C96.2814 20.392 96.1494 20.572 96.0054 20.764L95.8974 20.656L95.7894 21.124H95.5374V21.592H95.2134C95.1894 21.592 95.1894 21.616 95.2134 21.664C95.2374 21.712 95.2734 21.748 95.3214 21.772C95.2974 21.964 95.2374 22.156 95.1414 22.348C95.0694 22.516 95.0214 22.696 94.9974 22.888H95.1774C95.1294 23.08 95.2014 23.164 95.3934 23.14L95.3214 23.284ZM95.3934 21.808C95.3934 21.832 95.3694 21.82 95.3214 21.772V21.736L95.3934 21.772V21.808Z" fill="#05657B"/>
</svg>
