<svg width="29" height="28" viewBox="0 0 29 28" fill="none" xmlns="http://www.w3.org/2000/svg">
<path fill-rule="evenodd" clip-rule="evenodd" d="M14.0522 0C6.31725 0 0.0522461 6.42347 0.0522461 14.3541C0.0522461 20.7058 4.05975 26.0707 9.62475 27.9726C10.3247 28.0982 10.5872 27.6676 10.5872 27.2908C10.5872 26.9498 10.5697 25.8195 10.5697 24.6173C7.05225 25.2812 6.14225 23.7381 5.86225 22.9307C5.70475 22.518 5.02225 21.2441 4.42725 20.9032C3.93725 20.634 3.23725 19.9702 4.40975 19.9522C5.51225 19.9343 6.29975 20.9929 6.56225 21.4235C7.82225 23.5946 9.83475 22.9845 10.6397 22.6077C10.7622 21.6747 11.1297 21.0467 11.5322 20.6879C8.41725 20.329 5.16225 19.091 5.16225 13.6005C5.16225 12.0395 5.70475 10.7476 6.59725 9.74285C6.45725 9.384 5.96725 7.9127 6.73725 5.93901C6.73725 5.93901 7.90975 5.56222 10.5872 7.41031C11.7072 7.08734 12.8972 6.92586 14.0872 6.92586C15.2772 6.92586 16.4672 7.08734 17.5872 7.41031C20.2647 5.54428 21.4372 5.93901 21.4372 5.93901C22.2072 7.9127 21.7172 9.384 21.5772 9.74285C22.4697 10.7476 23.0122 12.0216 23.0122 13.6005C23.0122 19.1089 19.7397 20.329 16.6247 20.6879C17.1322 21.1364 17.5697 21.9977 17.5697 23.3434C17.5697 25.2632 17.5522 26.8063 17.5522 27.2908C17.5522 27.6676 17.8147 28.1161 18.5147 27.9726C24.0447 26.0707 28.0522 20.6879 28.0522 14.3541C28.0522 6.42347 21.7872 0 14.0522 0Z" fill="white"/>
</svg>
