<svg width="218" height="99" viewBox="0 0 218 99" fill="none" xmlns="http://www.w3.org/2000/svg">
<path d="M14.7122 77.4331C14.1867 77.5739 13.667 77.3653 13.1531 76.8073C12.6701 76.241 12.2188 75.484 11.7992 74.5363C11.3713 73.5577 10.9733 72.5049 10.605 71.3778C10.2284 70.2198 9.90352 69.1308 9.6302 68.1108C9.0753 66.0398 8.5811 63.8863 8.14761 61.6503C7.74503 59.4061 7.40952 57.2266 7.14108 55.1121C6.86436 52.9666 6.65279 51.0024 6.50636 49.2196C6.35994 47.4367 6.25714 45.9403 6.19798 44.7304C6.16144 43.4813 6.17075 42.6506 6.22591 42.2383C6.30148 41.6548 6.35139 41.1611 6.37565 40.757C6.43081 40.3447 6.61294 40.0971 6.92203 40.0143C7.41659 39.8818 7.94952 39.9543 8.52083 40.2319C9.12306 40.5012 9.46972 40.8059 9.56082 41.1459L9.58567 41.2386C9.70487 40.9417 9.93447 40.7476 10.2745 40.6565C10.769 40.524 11.2217 40.6678 11.6324 41.0878C12.074 41.4995 12.4436 42.0134 12.7411 42.6293C13.0613 43.2061 13.2753 43.6954 13.3829 44.0972C13.7059 45.3027 13.8189 46.7135 13.7219 48.3297C13.6166 49.915 13.3805 51.5684 13.0136 53.2901C12.6384 54.9808 12.2044 56.6376 11.7117 58.2604C11.2106 59.8523 10.73 61.2731 10.2697 62.5228C10.4774 63.7923 10.7046 65.0732 10.9515 66.3653C11.1983 67.6575 11.4915 68.9372 11.8311 70.2045C12.0133 70.8845 12.2027 71.5294 12.3992 72.1393C12.6267 72.741 12.8459 73.3117 13.0568 73.8515C12.9546 72.8519 12.8811 71.7121 12.8362 70.4321C12.7914 69.1521 12.7662 67.8834 12.7606 66.626C12.7467 65.3377 12.7504 64.1771 12.7719 63.1444C12.8242 62.1034 12.8851 61.3417 12.9547 60.8592C13.065 60.0346 13.326 59.4015 13.7377 58.9598C14.1804 58.5099 14.6335 58.2229 15.0972 58.0986C15.2826 58.049 15.5076 58.2703 15.772 58.7626C16.0364 59.2549 16.3072 59.8947 16.5844 60.6817C16.8925 61.4605 17.1934 62.2744 17.4871 63.1233C17.7725 63.9413 18.0135 64.6553 18.2101 65.2652C18.57 66.3613 18.9203 67.1123 19.2609 67.5179C19.6015 67.9236 19.9079 68.1397 20.18 68.1662C20.4521 68.1926 20.6696 68.2006 20.8324 68.1901C21.1106 68.1156 21.3535 67.7855 21.561 67.1998C21.7911 66.575 21.985 65.877 22.1428 65.1059C22.3315 64.3265 22.5142 63.6481 22.6908 63.0707C22.8591 62.4624 23.0359 62.1334 23.2214 62.0837C23.3141 62.0589 23.3812 62.1237 23.4226 62.2783C23.4557 62.4019 23.4632 62.6153 23.445 62.9183C23.0854 65.5325 22.692 67.5262 22.2649 68.8995C21.8378 70.2729 21.2069 71.0714 20.3724 71.295C19.6924 71.4772 19.1191 71.3161 18.6527 70.8116C17.9737 70.1322 17.4131 69.3382 16.9709 68.4297C16.5204 67.4903 16.0967 66.5272 15.6997 65.5403C15.3337 64.5451 14.9069 63.6324 14.4195 62.8023C14.3389 62.6251 14.2367 62.5531 14.1131 62.5863C14.0204 62.6111 13.9525 62.7287 13.9095 62.939C13.8973 63.141 13.8667 63.3977 13.8176 63.709C13.7829 63.9502 13.7506 64.5717 13.7209 65.5735C13.7138 66.5362 13.7297 67.708 13.7684 69.089C13.7989 70.4392 13.8964 71.8541 14.061 73.3339C14.2174 74.7829 14.457 76.11 14.7801 77.3155C14.7966 77.3773 14.774 77.4165 14.7122 77.4331ZM10.0543 60.7916C10.5758 59.0286 11.0569 57.1769 11.4978 55.2367C11.9613 53.2573 12.2785 51.3502 12.4495 49.5155C12.6204 47.6807 12.5237 46.0833 12.1593 44.7233C11.9688 44.0124 11.7063 43.4036 11.3717 42.8969C11.0289 42.3593 10.5564 41.9558 9.95415 41.6865C9.90668 41.633 9.84789 41.5991 9.77779 41.5847C9.70769 41.5704 9.63758 41.556 9.56748 41.5417C9.3955 44.2381 9.32593 47.2549 9.35879 50.5921C9.38336 53.8984 9.6152 57.2982 10.0543 60.7916ZM29.1535 70.6813C28.1026 70.9629 27.1924 70.8424 26.4229 70.3198C25.6843 69.7888 25.066 69.0269 24.5681 68.0339C24.0927 67.0018 23.7101 65.9448 23.4202 64.863C23.2215 64.1211 23.066 63.4174 22.9539 62.7517C22.8335 62.0551 22.738 61.4513 22.6673 60.9402C22.4823 59.6315 22.356 58.3567 22.2886 57.1159C22.2211 55.8751 22.1838 54.8084 22.1765 53.9158C22.2002 53.015 22.2098 52.4327 22.2054 52.1689C22.2131 51.703 22.3869 51.4245 22.7269 51.3334C23.0669 51.2423 23.5154 51.3706 24.0724 51.7183C24.6211 52.0351 25.0254 52.3077 25.2854 52.5362C26.0543 52.5621 26.8202 52.6385 27.583 52.7653C28.3375 52.8613 28.9767 53.0213 29.5006 53.2454C30.0553 53.4612 30.3865 53.77 30.4942 54.1718C30.7013 54.9445 30.5838 55.8042 30.1417 56.7509C29.6997 57.6976 29.0711 58.628 28.2559 59.5421C27.4407 60.4562 26.5852 61.2818 25.6894 62.0187C25.7955 62.7854 25.9479 63.5397 26.1467 64.2815C26.4779 65.5179 26.9224 66.5583 27.4799 67.4028C28.0375 68.2473 28.6872 68.5701 29.429 68.3713C30.0781 68.1974 30.6342 67.7999 31.0973 67.1789C31.5912 66.5496 32.0057 65.8091 32.3406 64.9574C32.6756 64.1057 32.9488 63.2705 33.1601 62.4519C33.3941 61.5942 33.553 60.889 33.6368 60.3365C33.649 60.1345 33.7632 60.0045 33.9796 59.9465C34.1032 59.9134 34.2023 60.0359 34.2768 60.3141C34.3431 60.5613 34.2984 61.1365 34.1429 62.0395C33.9707 62.8808 33.7748 63.6952 33.5552 64.4829C33.3582 65.2314 33.1405 65.9026 32.9021 66.4965C32.5589 67.3173 32.0878 68.1558 31.489 69.012C30.9211 69.8599 30.1426 70.4163 29.1535 70.6813ZM25.4807 60.6833C26.4051 59.8061 27.177 58.8539 27.7962 57.8266C28.4381 56.7602 28.6306 55.7478 28.3739 54.7896C28.2828 54.4496 27.9289 54.18 27.3124 53.9808C26.7184 53.7424 26.0483 53.5907 25.302 53.5256C25.1962 54.6141 25.1532 55.752 25.1732 56.9393C25.2241 58.1183 25.3266 59.3663 25.4807 60.6833ZM42.6679 69.6939C42.2352 69.8099 41.8168 69.8557 41.4128 69.8315C40.1471 69.8062 39.0263 69.3942 38.0503 68.5956C37.1053 67.7887 36.2877 66.7157 35.5977 65.3767C34.9385 64.0294 34.3977 62.5676 33.9753 60.9912C33.7434 60.1257 33.5424 59.252 33.3723 58.3699C33.2023 57.4879 33.0672 56.613 32.9672 55.7453C32.7424 53.9172 32.5761 51.8747 32.4683 49.6177C32.3914 47.3524 32.368 45.0397 32.3981 42.6794C32.4283 40.3192 32.507 38.0785 32.6344 35.9572C32.7243 35.3037 32.8123 34.7666 32.8983 34.346C32.9844 33.9254 33.2449 33.7231 33.6799 33.7391C34.0138 33.749 34.3643 33.8207 34.7314 33.9542C35.1211 34.0486 35.4418 34.1946 35.6935 34.3921C36.7848 35.1267 37.5624 36.3595 38.0262 38.0904C38.4486 39.6668 38.6157 41.5269 38.5276 43.6708C38.4312 45.7837 38.1338 47.9505 37.6356 50.1711C37.1683 52.3835 36.5359 54.4744 35.7385 56.4439C35.9406 58.3112 36.2571 60.0485 36.6878 61.6558C37.0273 62.9231 37.4348 64.0728 37.9101 65.105C38.4164 66.1288 38.9935 66.9846 39.6416 67.6723C40.1947 68.2529 40.7208 68.6089 41.2198 68.7402C41.7497 68.8633 42.2155 68.871 42.6174 68.7633C43.0501 68.6473 43.4158 68.4665 43.7143 68.2209C44.0439 67.9669 44.3044 67.7646 44.4959 67.6139C44.7018 67.3931 44.8974 67.2579 45.0829 67.2082C45.3301 67.1419 45.3942 67.2573 45.275 67.5542C45.1928 67.7419 44.9386 68.0916 44.5125 68.6033C44.0865 69.115 43.4716 69.4786 42.6679 69.6939ZM35.5288 54.3633C36.1038 52.5528 36.5654 50.6898 36.9135 48.7744C37.2843 46.8199 37.4974 44.9572 37.553 43.1865C37.6313 41.3766 37.4964 39.8225 37.1486 38.5243C37.0161 38.0298 36.8455 37.5786 36.6368 37.1707C36.459 36.7545 36.2319 36.4013 35.9553 36.111C35.6084 39.0199 35.3842 42.0781 35.283 45.2856C35.2043 48.4539 35.2863 51.4798 35.5288 54.3633ZM51.9046 67.2189C51.4719 67.3349 51.0535 67.3808 50.6494 67.3565C49.3838 67.3312 48.263 66.9193 47.287 66.1206C46.342 65.3137 45.5244 64.2408 44.8343 62.9018C44.1752 61.5545 43.6344 60.0926 43.212 58.5162C42.9801 57.6508 42.7791 56.777 42.609 55.895C42.4389 55.0129 42.3039 54.1381 42.2039 53.2704C41.9791 51.4423 41.8128 49.3997 41.705 47.1427C41.628 44.8775 41.6047 42.5647 41.6348 40.2045C41.665 37.8442 41.7437 35.6035 41.871 33.4823C41.9609 32.8287 42.0489 32.2917 42.135 31.8711C42.2211 31.4504 42.4816 31.2481 42.9165 31.2641C43.2505 31.274 43.601 31.3457 43.9681 31.4793C44.3578 31.5736 44.6785 31.7196 44.9302 31.9172C46.0215 32.6518 46.7991 33.8845 47.2629 35.6155C47.6852 37.1919 47.8524 39.052 47.7642 41.1958C47.6678 43.3088 47.3705 45.4756 46.8723 47.6962C46.4049 49.9085 45.7726 51.9994 44.9751 53.9689C45.1773 55.8362 45.4937 57.5735 45.9244 59.1808C46.264 60.4481 46.6714 61.5979 47.1468 62.63C47.653 63.6539 48.2302 64.5096 48.8783 65.1973C49.4314 65.778 49.9574 66.1339 50.4564 66.2653C50.9863 66.3883 51.4522 66.396 51.854 66.2883C52.2868 66.1724 52.6524 65.9916 52.951 65.7459C53.2805 65.492 53.541 65.2897 53.7326 65.139C53.9384 64.9182 54.1341 64.7829 54.3195 64.7332C54.5668 64.667 54.6309 64.7823 54.5117 65.0793C54.4294 65.267 54.1753 65.6167 53.7492 66.1284C53.3231 66.6401 52.7083 67.0036 51.9046 67.2189ZM44.7655 51.8883C45.3405 50.0778 45.802 48.2149 46.1502 46.2995C46.5209 44.3449 46.7341 42.4823 46.7897 40.7116C46.8679 38.9016 46.7331 37.3476 46.3853 36.0494C46.2527 35.5548 46.0821 35.1036 45.8735 34.6957C45.6957 34.2795 45.4685 33.9263 45.192 33.636C44.845 36.5449 44.6209 39.6031 44.5196 42.8106C44.441 45.9789 44.5229 49.0048 44.7655 51.8883ZM56.204 62.7872C55.0912 63.0853 54.1769 62.9494 53.4609 62.3792C52.7367 61.7782 52.2337 60.9522 51.9522 59.9013C51.654 58.7886 51.5523 57.3581 51.6471 55.61C51.7419 53.8619 51.8924 52.1983 52.0987 50.6191C51.6644 51.0999 51.2063 51.5539 50.7244 51.9812C50.2426 52.4084 49.7853 52.6801 49.3526 52.796C49.0435 52.8788 48.791 52.8637 48.595 52.7505C48.43 52.6291 48.3226 52.4757 48.2729 52.2902C48.2315 52.1357 48.2157 51.8914 48.2256 51.5575C48.2355 51.2235 48.3114 50.8885 48.4532 50.5523C48.626 50.2079 48.8823 49.9901 49.2224 49.899C49.346 49.8659 49.4202 49.8957 49.4451 49.9884C49.4534 50.0193 49.4462 50.0544 49.4236 50.0936C49.4236 50.0936 49.4277 50.109 49.436 50.1399C49.4216 50.21 49.4227 50.276 49.4393 50.3378C49.4724 50.4614 49.5663 50.5026 49.7208 50.4611C49.8136 50.4363 49.9176 50.3919 50.033 50.3278C50.1792 50.2555 50.3172 50.1523 50.4469 50.0181C50.7146 49.7808 51.0204 49.5001 51.3642 49.176C51.6998 48.8211 52.0817 48.4537 52.51 48.0739L52.8328 46.4966C52.9271 46.1069 53.0814 45.8171 53.2955 45.6272C53.5014 45.4064 53.7125 45.267 53.9289 45.2091C54.2689 45.118 54.5791 45.1011 54.8595 45.1585C55.1625 45.1767 55.4429 45.234 55.7007 45.3306C55.9993 45.085 56.3175 44.8506 56.6553 44.6276C57.0157 44.3654 57.3731 44.1537 57.7274 43.9925C58.786 43.245 59.9159 42.5779 61.1169 41.991C62.3097 41.3733 63.5242 40.8987 64.7606 40.5674C65.4406 40.3852 66.1609 40.2916 66.9216 40.2866C67.6822 40.2815 68.1163 40.4799 68.224 40.8818C68.2571 41.0054 68.15 41.1004 67.9028 41.1666C67.4082 41.2991 66.8198 41.3905 66.1376 41.4408C65.4863 41.4828 64.8515 41.5866 64.2333 41.7523C63.4606 41.9593 62.7312 42.2045 62.0451 42.4877C61.3507 42.74 60.7152 43.0263 60.1384 43.3465C60.6909 43.4303 61.1921 43.6936 61.642 44.1362C62.1228 44.5706 62.4709 45.1896 62.6862 45.9932C62.9181 46.8587 62.9792 47.9521 62.8695 49.2736C62.7907 50.5867 62.5656 51.9722 62.1942 53.4299C61.8538 54.8795 61.3845 56.2807 60.7862 57.6336C60.1797 58.9556 59.4885 60.085 58.7125 61.0218C57.9365 61.9585 57.1003 62.547 56.204 62.7872ZM56.4531 61.6769C57.1022 61.503 57.688 61.0312 58.2107 60.2618C58.7643 59.484 59.261 58.5558 59.7008 57.4772C60.1406 56.3986 60.4949 55.3098 60.7636 54.2108C60.8949 53.7118 61.0157 53.05 61.1261 52.2254C61.2673 51.3924 61.3343 50.5297 61.327 49.6372C61.3507 48.7363 61.2714 47.9459 61.0892 47.2659C60.9236 46.6477 60.6478 46.175 60.262 45.8477C59.8987 45.4812 59.3617 45.3932 58.6507 45.5837C58.3107 45.6748 57.9028 45.8835 57.4271 46.2098C56.9513 46.536 56.4529 46.9015 55.9319 47.3061C55.8414 47.4629 55.755 47.6351 55.6728 47.8228C55.6132 47.9713 55.5732 48.131 55.5528 48.3022C55.2554 49.5414 54.9911 50.9042 54.7599 52.3907C54.5205 53.8462 54.3655 55.2461 54.295 56.5901C54.2554 57.9259 54.3598 59.0574 54.6082 59.9847C54.9727 61.3447 55.5876 61.9088 56.4531 61.6769ZM94.4816 55.1148C94.0179 55.239 93.5951 55.021 93.2131 54.4608C92.8311 53.9006 92.4891 53.1806 92.1871 52.3008C91.8851 51.4209 91.6223 50.5637 91.3986 49.7292C90.8355 47.6273 90.3123 45.3657 89.8291 42.9442C89.3459 40.5228 89.0029 38.13 88.8002 35.7659C87.8139 36.6597 86.7997 37.5112 85.7576 38.3204C84.7156 39.1297 83.6992 39.8493 82.7085 40.4792C82.7434 42.0931 82.839 43.6246 82.9953 45.0735C83.1826 46.5141 83.4336 47.8217 83.7483 48.9963C83.9388 49.7072 84.1798 50.4212 84.4713 51.1381C84.7545 51.8242 85.086 52.3814 85.4658 52.8097C85.8682 53.1988 86.3012 53.3312 86.7649 53.207C87.2903 53.0662 87.728 52.7833 88.0779 52.3582C88.4588 51.9249 88.7849 51.4731 89.0565 51.0028C89.3197 50.5016 89.5181 50.0674 89.6517 49.7004C89.7852 49.3333 89.8674 49.1456 89.8983 49.1373C90.0529 49.0959 90.1716 49.2298 90.2544 49.5389C90.271 49.6007 90.2917 49.678 90.3165 49.7707C90.3414 49.8634 90.3466 49.9448 90.3323 50.0149C90.3902 50.2313 90.2619 50.6798 89.9474 51.3604C89.6245 52.0101 89.2007 52.6537 88.6758 53.2913C88.1427 53.8979 87.567 54.2841 86.9488 54.4497C85.9906 54.7065 85.1452 54.5189 84.4127 53.887C83.6719 53.2241 83.0401 52.3498 82.5173 51.2642C81.9862 50.1476 81.5757 49.0484 81.2858 47.9665C80.996 46.8847 80.7607 45.8213 80.5802 44.7765C80.4222 43.6924 80.2974 42.732 80.2057 41.8952C79.9049 42.0089 79.6082 42.1381 79.3157 42.2828C79.0457 42.3882 78.7758 42.4937 78.5059 42.5991C77.9496 42.7482 77.4878 42.756 77.1208 42.6224C76.7537 42.4889 76.5412 42.3139 76.4832 42.0975C76.4087 41.8194 76.5878 41.6223 77.0205 41.5063C77.175 41.4649 77.3646 41.4307 77.5893 41.4036C77.8139 41.3766 78.0344 41.334 78.2508 41.2761C78.869 41.1104 79.4902 40.8943 80.1145 40.6276C80.1062 40.5967 80.1021 40.5813 80.1021 40.5813C80.1247 40.5421 80.1319 40.507 80.1236 40.4761C79.9616 37.7698 79.8698 35.0779 79.848 32.4002C79.8572 29.7144 80.0107 27.0726 80.3085 24.475C80.378 23.9926 80.5052 23.4781 80.6901 22.9317C80.9058 22.3769 81.1837 22.054 81.5237 21.9629C81.8019 21.8884 82.103 22.023 82.4271 22.3669C82.7511 22.7107 83.0299 23.1329 83.2634 23.6336C83.5196 24.095 83.7015 24.5266 83.8091 24.9284C83.8754 25.1757 83.8942 25.3695 83.8655 25.5097C83.5135 27.658 83.2256 29.9216 83.0017 32.3006C82.7778 34.6796 82.6692 36.9946 82.6761 39.2455C84.7276 38.0001 86.722 36.3559 88.6593 34.3129C88.4708 31.8787 88.4052 29.5938 88.4625 27.4583C88.5423 25.2835 88.7442 23.4405 89.068 21.9291C89.6893 19.1786 90.6874 16.9069 92.0622 15.114C93.437 13.3211 94.8971 12.2175 96.4426 11.8034C97.339 11.5632 98.0419 11.5902 98.5514 11.8844C99.0835 12.1394 99.4407 12.6068 99.6229 13.2869C99.8465 14.1214 99.8601 15.1613 99.6637 16.4066C99.4674 17.6518 99.1175 19.0045 98.6142 20.4645C98.1419 21.9162 97.5417 23.3856 96.8138 24.8727C96.0859 26.3597 95.3022 27.7624 94.4628 29.0805C93.5781 30.4771 92.4997 31.8924 91.2275 33.3266C91.4083 36.2266 91.7157 39.043 92.1497 41.7758C92.6147 44.5003 93.0772 46.8444 93.5372 48.8083C93.5006 47.5592 93.463 46.2441 93.4242 44.8631C93.3855 43.4821 93.3591 42.1474 93.3452 40.8591C93.3622 39.5626 93.3897 38.4288 93.4277 37.4579C93.4657 36.487 93.5123 35.7953 93.5675 35.383C93.6431 34.7996 93.9165 34.2128 94.3878 33.6227C94.8592 33.0326 95.3267 32.6755 95.7903 32.5512C96.3467 32.4021 96.7201 32.6831 96.9106 33.394C96.9686 33.6103 97.0277 33.8927 97.0879 34.241C97.1398 34.5583 97.2071 34.8716 97.29 35.1807C97.5633 36.2007 97.915 37.266 98.345 38.3765C98.7751 39.487 99.235 40.5233 99.7247 41.4853C100.206 42.4165 100.688 43.1652 101.171 43.7315C101.646 44.2668 102.069 44.4848 102.44 44.3854C102.811 44.2861 103.08 43.9322 103.249 43.3239C103.448 42.7074 103.595 42.0218 103.691 41.2673C103.787 40.5127 103.889 39.8396 103.995 39.2478C104.132 38.6478 104.325 38.3147 104.572 38.2485C104.727 38.207 104.837 38.31 104.903 38.5573C104.953 38.7427 104.969 38.987 104.951 39.29C104.845 40.3785 104.725 41.3547 104.592 42.2185C104.459 43.0823 104.302 43.8535 104.119 44.5318C104.01 44.9916 103.803 45.5773 103.496 46.2888C103.182 46.9694 102.731 47.3884 102.144 47.5458C101.618 47.6866 101.136 47.6171 100.696 47.3373C100.28 47.0183 99.8885 46.6096 99.5231 46.1112C99.1802 45.5736 98.8612 45.0627 98.5658 44.5787C98.2931 44.0554 97.9481 43.3859 97.5307 42.5702C97.1442 41.7461 96.7537 40.9066 96.3589 40.0516C95.9642 39.1967 95.6109 38.4962 95.299 37.9504C95.0097 37.3653 94.8187 37.0852 94.7259 37.11C94.6332 37.1349 94.5653 37.2525 94.5223 37.4628C94.5102 37.6648 94.4796 37.9215 94.4305 38.2328C94.3957 38.474 94.3522 39.1151 94.2998 40.1561C94.2392 41.1662 94.1902 42.4051 94.1528 43.8728C94.1463 45.3322 94.1718 46.8493 94.2293 48.4241C94.3178 49.9906 94.47 51.424 94.6859 52.7245L94.878 53.0705C94.942 53.1859 94.9865 53.2899 95.0113 53.3826C95.0362 53.4754 95.061 53.5681 95.0859 53.6608C95.1935 54.0627 95.1795 54.3811 95.0437 54.6163C94.9162 54.8824 94.7289 55.0485 94.4816 55.1148ZM91.1048 31.5705C92.6093 29.6434 93.9032 27.425 94.9865 24.9151C96.1007 22.3969 96.8465 19.4308 97.2237 16.0168C97.328 15.2932 97.3056 14.6532 97.1565 14.0968C96.9743 13.4168 96.605 13.1513 96.0486 13.3004L95.8168 13.3625C94.4469 14.0609 93.3971 15.336 92.6676 17.1879C91.938 19.0399 91.4624 21.2213 91.2408 23.7322C91.0417 26.204 90.9964 28.8167 91.1048 31.5705ZM110.427 48.9041C109.376 49.1857 108.466 49.0652 107.696 48.5426C106.958 48.0116 106.34 47.2497 105.842 46.2567C105.366 45.2246 104.984 44.1676 104.694 43.0858C104.495 42.3439 104.34 41.6402 104.228 40.9745C104.107 40.2779 104.012 39.6741 103.941 39.163C103.756 37.8543 103.63 36.5795 103.562 35.3387C103.495 34.0979 103.457 33.0312 103.45 32.1386C103.474 31.2378 103.483 30.6555 103.479 30.3917C103.487 29.9258 103.661 29.6473 104.001 29.5562C104.341 29.4651 104.789 29.5934 105.346 29.9411C105.895 30.2579 106.299 30.5305 106.559 30.759C107.328 30.7849 108.094 30.8613 108.857 30.9882C109.611 31.0841 110.25 31.2441 110.774 31.4682C111.329 31.684 111.66 31.9928 111.768 32.3946C111.975 33.1673 111.857 34.027 111.415 34.9737C110.973 35.9204 110.345 36.8508 109.529 37.7649C108.714 38.679 107.859 39.5046 106.963 40.2415C107.069 41.0082 107.221 41.7625 107.42 42.5043C107.752 43.7407 108.196 44.7811 108.754 45.6256C109.311 46.4701 109.961 46.7929 110.703 46.5941C111.352 46.4202 111.908 46.0227 112.371 45.4017C112.865 44.7724 113.279 44.0319 113.614 43.1802C113.949 42.3285 114.222 41.4933 114.434 40.6748C114.668 39.817 114.827 39.1118 114.91 38.5593C114.923 38.3573 115.037 38.2273 115.253 38.1693C115.377 38.1362 115.476 38.2587 115.55 38.5369C115.617 38.7842 115.572 39.3593 115.416 40.2623C115.244 41.1036 115.048 41.918 114.829 42.7057C114.632 43.4542 114.414 44.1254 114.176 44.7193C113.832 45.5401 113.361 46.3786 112.763 47.2348C112.195 48.0827 111.416 48.6391 110.427 48.9041ZM106.754 38.9061C107.679 38.0289 108.451 37.0767 109.07 36.0494C109.712 34.983 109.904 33.9706 109.647 33.0124C109.556 32.6724 109.203 32.4028 108.586 32.2036C107.992 31.9652 107.322 31.8135 106.576 31.7484C106.47 32.8369 106.427 33.9748 106.447 35.1621C106.498 36.3411 106.6 37.5891 106.754 38.9061ZM124.817 43.2097C123.673 43.5162 122.731 43.0896 121.99 41.9299C121.24 40.7394 120.612 39.2014 120.107 37.3159C119.834 36.2959 119.6 35.2985 119.405 34.3237C119.202 33.3181 119.029 32.4865 118.885 31.8291C118.374 31.8998 117.87 31.9355 117.374 31.9361C116.9 31.8975 116.518 31.834 116.229 31.7457C116.256 31.9704 116.253 32.4517 116.219 33.1897C116.176 33.8968 116.117 34.7245 116.039 35.6728C115.993 36.6128 115.912 37.5456 115.795 38.4713C115.679 39.3969 115.541 40.1794 115.381 40.8186C115.212 41.4268 115.005 41.7641 114.757 41.8304C114.634 41.8635 114.547 41.7873 114.497 41.6019C114.431 41.3546 114.448 40.9856 114.549 40.4949C114.827 39.062 115.036 37.6147 115.174 36.153C115.313 34.6914 115.392 33.1958 115.413 31.6663C115.071 31.6255 114.781 31.4713 114.544 31.2036C114.329 30.8967 114.168 30.5424 114.06 30.1405C113.762 29.0278 113.672 28.0745 113.791 27.2808C113.94 26.4788 114.17 25.8539 114.481 25.4062C114.783 24.9277 115.043 24.6594 115.259 24.6014C115.63 24.502 115.898 24.7614 116.064 25.3796C116.147 25.6887 116.198 26.1885 116.217 26.879C116.228 27.5386 116.217 28.2374 116.183 28.9754C116.14 29.6825 116.096 30.2576 116.049 30.7009C116.049 30.7009 116.158 30.7379 116.377 30.8118C116.595 30.8857 116.813 30.8937 117.029 30.8358C117.338 30.7529 117.582 30.4888 117.761 30.0433C117.962 29.5587 118.214 29.0771 118.517 28.5985C118.842 28.0807 119.329 27.7349 119.978 27.5609C120.318 27.4698 120.624 27.4375 120.896 27.464C121.16 27.4595 121.317 27.5501 121.367 27.7355L121.404 27.8746C121.302 28.7302 121.343 29.8123 121.528 31.121C121.705 32.3988 121.963 33.6714 122.303 34.9386C122.601 36.0514 122.944 37.0858 123.333 38.0417C123.713 38.9668 124.106 39.6899 124.511 40.2109C124.946 40.7236 125.349 40.9303 125.72 40.8309C126.091 40.7315 126.393 40.4354 126.625 39.9424C126.857 39.4495 127.035 38.9381 127.158 38.4082C127.312 37.87 127.406 37.4803 127.441 37.2391C127.767 35.8597 127.962 34.9793 128.026 34.5979C128.081 34.1855 128.232 33.9462 128.479 33.88C128.572 33.8551 128.635 33.9045 128.668 34.0282C128.685 34.09 128.695 34.2528 128.699 34.5167C128.602 35.6361 128.424 36.8267 128.166 38.0885C127.93 39.3112 127.545 40.4082 127.01 41.3797C126.475 42.3513 125.744 42.9612 124.817 43.2097ZM134.515 42.4498C133.464 42.7314 132.554 42.6109 131.784 42.0883C131.046 41.5573 130.427 40.7954 129.929 39.8024C129.454 38.7703 129.072 37.7133 128.782 36.6315C128.583 35.8896 128.427 35.1859 128.315 34.5202C128.195 33.8236 128.099 33.2198 128.029 32.7087C127.844 31.4 127.717 30.1252 127.65 28.8844C127.583 27.6436 127.545 26.5769 127.538 25.6843C127.562 24.7835 127.571 24.2012 127.567 23.9374C127.574 23.4715 127.748 23.193 128.088 23.1019C128.428 23.0108 128.877 23.1391 129.434 23.4868C129.982 23.8036 130.387 24.0762 130.647 24.3047C131.416 24.3306 132.182 24.407 132.944 24.5339C133.699 24.6298 134.338 24.7898 134.862 25.0139C135.417 25.2297 135.748 25.5385 135.856 25.9403C136.063 26.713 135.945 27.5727 135.503 28.5194C135.061 29.4661 134.432 30.3965 133.617 31.3106C132.802 32.2247 131.947 33.0503 131.051 33.7872C131.157 34.5539 131.309 35.3082 131.508 36.05C131.839 37.2864 132.284 38.3268 132.841 39.1713C133.399 40.0158 134.049 40.3386 134.79 40.1398C135.44 39.9659 135.996 39.5684 136.459 38.9474C136.953 38.3181 137.367 37.5776 137.702 36.7259C138.037 35.8742 138.31 35.039 138.521 34.2205C138.755 33.3627 138.914 32.6575 138.998 32.105C139.01 31.903 139.125 31.773 139.341 31.715C139.465 31.6819 139.564 31.8044 139.638 32.0826C139.704 32.3299 139.66 32.905 139.504 33.808C139.332 34.6493 139.136 35.4637 138.917 36.2514C138.72 36.9999 138.502 37.6711 138.264 38.265C137.92 39.0858 137.449 39.9243 136.85 40.7805C136.283 41.6284 135.504 42.1848 134.515 42.4498ZM130.842 32.4518C131.767 31.5746 132.538 30.6224 133.158 29.5951C133.799 28.5287 133.992 27.5163 133.735 26.5581C133.644 26.2181 133.29 25.9485 132.674 25.7493C132.08 25.5109 131.41 25.3592 130.663 25.2941C130.558 26.3826 130.515 27.5205 130.535 28.7078C130.585 29.8868 130.688 31.1348 130.842 32.4518ZM144.555 32.2062C144.401 32.2476 144.235 32.0602 144.057 31.644C143.91 31.2196 143.77 30.7601 143.638 30.2655C143.116 28.3182 142.607 26.2348 142.112 24.0154C141.617 21.796 141.088 19.6353 140.524 17.5335C140.234 16.4516 139.922 15.409 139.587 14.4055C139.243 13.3712 138.874 12.4265 138.48 11.5716C138.438 11.417 138.526 11.3107 138.742 11.2528C138.989 11.1865 139.319 11.181 139.731 11.2361C140.166 11.2521 140.579 11.3073 140.968 11.4016C141.358 11.496 141.624 11.6234 141.767 11.7841C142.216 12.2267 142.607 13.0662 142.938 14.3026C143.261 15.5081 143.51 16.9321 143.686 18.5748C143.861 20.2174 144.013 21.8993 144.143 23.6203C144.265 25.3104 144.36 26.8419 144.43 28.2146C144.53 29.5791 144.637 30.5941 144.749 31.2598C144.867 31.8245 144.803 32.1399 144.555 32.2062ZM146.112 40.9824C145.741 41.0817 145.251 41.0473 144.643 40.879C144.315 40.7681 144.11 40.5581 144.027 40.249C143.927 39.8781 144.097 39.3357 144.535 38.622C145.004 37.9 145.718 37.4106 146.676 37.1538C147.232 37.0048 147.544 37.0539 147.61 37.3011C147.643 37.4248 147.588 37.5887 147.444 37.793C147.156 38.2014 146.988 38.6273 146.941 39.0705C146.894 39.5138 146.835 39.9106 146.763 40.2612C146.7 40.6426 146.483 40.883 146.112 40.9824Z" fill="#067993"/>
<path d="M2 86.202C2 99.4715 45.3764 104.034 78.583 79.1601C111.79 54.2863 153.559 59.443 153.559 59.443C153.559 59.443 175.506 60.9443 170.161 72.5877" stroke="#067993" stroke-width="3" stroke-linecap="round" stroke-linejoin="round"/>
<path d="M84 93C99.6667 83.3334 134.5 66.3 148.5 75.5" stroke="#067993" stroke-width="2" stroke-linecap="round" stroke-linejoin="round"/>
<path d="M189 21L194.5 32" stroke="#067993" stroke-width="2" stroke-linecap="round" stroke-linejoin="round"/>
<path d="M197.5 21.5L201.5 30.5" stroke="#067993" stroke-width="2" stroke-linecap="round" stroke-linejoin="round"/>
<path d="M184.5 40C194.667 47.5 215.3 57 216.5 35" stroke="#067993" stroke-width="2" stroke-linecap="round" stroke-linejoin="round"/>
</svg>
