<svg width="396" height="213" viewBox="0 0 396 213" fill="none" xmlns="http://www.w3.org/2000/svg">
<path d="M29.3418 169.559C28.3527 169.824 27.3525 169.43 26.3412 168.376C25.4083 167.367 24.5079 165.985 23.64 164.229C22.8174 162.396 22.0544 160.414 21.351 158.283C20.6311 156.091 19.9978 153.975 19.4512 151.935L19.4263 151.842C18.6635 151.715 17.9399 151.611 17.2554 151.529C16.5544 151.386 15.9008 151.296 15.2948 151.259C14.8742 151.173 14.6225 150.976 14.5396 150.667C14.3906 150.11 14.5649 149.401 15.0627 148.539C15.6223 147.66 16.304 147.113 17.1076 146.898C17.2931 146.848 17.5878 146.835 17.9919 146.859C18.0084 146.921 18.0785 146.936 18.2022 146.902C16.9841 141.862 15.9824 136.763 15.197 131.607C14.3951 126.389 13.7544 121.525 13.2749 117.015C12.8407 112.427 12.5351 108.567 12.3582 105.434C12.2266 102.223 12.2303 100.134 12.3693 99.1696C12.5204 98.0027 12.6202 97.0153 12.6687 96.2072C12.7791 95.3825 13.1433 94.8874 13.7615 94.7217C14.7506 94.4567 15.8165 94.6018 16.9591 95.157C18.1636 95.6956 18.8569 96.3049 19.0391 96.9849L19.0888 97.1704C19.3272 96.5764 19.7864 96.1883 20.4664 96.0061C21.4555 95.7411 22.3608 96.0286 23.1822 96.8686C24.0654 97.6921 24.8046 98.7198 25.3997 99.9517C26.0401 101.105 26.468 102.084 26.6833 102.888C27.3293 105.299 27.547 108.089 27.3364 111.26C27.1259 114.43 26.6537 117.737 25.9198 121.18C25.1694 124.562 24.3015 127.875 23.3159 131.121C22.3138 134.305 21.3525 137.147 20.4321 139.646C20.6563 140.977 20.8805 142.309 21.1047 143.64C21.3289 144.971 21.5531 146.303 21.7774 147.634L22.9465 147.917C24.8197 145.759 26.6884 143.337 28.5527 140.65C30.4171 137.964 32.1495 135.281 33.75 132.599C35.3957 129.839 36.7346 127.294 37.7665 124.963C37.8571 124.806 37.9641 124.712 38.0878 124.678C38.2732 124.629 38.3991 124.727 38.4653 124.975C38.4985 125.098 38.5007 125.23 38.472 125.371C37.8893 127.647 36.9854 130.208 35.7603 133.054C34.5186 135.838 33.1223 138.664 31.5715 141.531C30.066 144.32 28.4942 146.861 26.8562 149.155C30.5103 150.429 34.0905 151.921 37.5968 153.632C41.1649 155.326 44.5166 157.078 47.6519 158.889C48.1222 159.16 48.4071 159.481 48.5065 159.852C48.6224 160.285 48.5568 160.535 48.3095 160.601C48.1858 160.634 48.1157 160.62 48.0992 160.558C46.6927 160.007 44.7089 159.28 42.1476 158.376C39.5699 157.41 36.8375 156.486 33.9506 155.603C33.0763 155.307 31.703 154.88 29.8306 154.322C27.9583 153.763 25.9623 153.238 23.8427 152.746L23.5645 152.82C23.5027 152.837 23.4183 152.892 23.3112 152.987C23.2494 153.004 23.1484 152.998 23.0082 152.969L23.5796 155.102C24.4079 158.193 25.3387 160.925 26.3722 163.299C27.4509 165.594 28.4861 167.602 29.4776 169.324C29.5107 169.448 29.4654 169.526 29.3418 169.559ZM20.0261 136.276C21.069 132.75 22.0622 129.039 23.0058 125.142C23.9327 121.183 24.5672 117.369 24.9091 113.699C25.251 110.03 25.0575 106.835 24.3287 104.115C23.9311 102.631 23.3195 101.337 22.4936 100.234C21.6678 99.1296 20.5908 98.325 19.2627 97.8195C19.2009 97.836 19.1308 97.8217 19.0524 97.7764C18.7084 103.169 18.5693 109.203 18.635 115.877C18.7007 122.552 19.1644 129.351 20.0261 136.276ZM55.1927 156.868C53.0908 157.431 51.2704 157.19 49.7314 156.145C48.2543 155.083 47.0177 153.559 46.0218 151.573C45.0711 149.509 44.3059 147.395 43.7261 145.231C43.3286 143.748 43.0177 142.34 42.7935 141.009C42.5527 139.616 42.3616 138.408 42.2203 137.386C41.8502 134.768 41.5977 132.219 41.4628 129.737C41.3279 127.256 41.2532 125.122 41.2387 123.337C41.2861 121.536 41.3053 120.371 41.2964 119.843C41.3118 118.911 41.6595 118.354 42.3395 118.172C43.0195 117.99 43.9165 118.247 45.0304 118.942C46.1278 119.576 46.9365 120.121 47.4565 120.578C48.9942 120.63 50.526 120.782 52.0516 121.036C53.5608 121.228 54.8391 121.548 55.8868 121.996C56.9963 122.428 57.6587 123.045 57.8741 123.849C58.2882 125.395 58.0532 127.114 57.1691 129.007C56.285 130.901 55.0278 132.761 53.3974 134.59C51.767 136.418 50.0561 138.069 48.2645 139.543C48.4766 141.076 48.7814 142.585 49.179 144.068C49.8415 146.541 50.7304 148.622 51.8455 150.311C52.9606 152 54.26 152.646 55.7437 152.248C57.0419 151.9 58.1541 151.105 59.0802 149.863C60.0681 148.605 60.897 147.124 61.5669 145.42C62.2369 143.717 62.7832 142.047 63.2059 140.409C63.6738 138.694 63.9916 137.283 64.1593 136.178C64.1836 135.774 64.4121 135.514 64.8448 135.398C65.0921 135.332 65.2902 135.577 65.4393 136.134C65.5718 136.628 65.4825 137.778 65.1714 139.585C64.8271 141.267 64.4353 142.896 63.9961 144.471C63.6021 145.968 63.1667 147.311 62.6899 148.499C62.0034 150.14 61.0613 151.817 59.8637 153.529C58.7279 155.225 57.1709 156.338 55.1927 156.868ZM47.847 136.872C49.6959 135.118 51.2396 133.213 52.4781 131.159C53.7618 129.026 54.1469 127.001 53.6334 125.085C53.4512 124.405 52.7435 123.865 51.5104 123.467C50.3225 122.99 48.9823 122.687 47.4897 122.557C47.278 124.734 47.1921 127.009 47.232 129.384C47.3338 131.742 47.5388 134.238 47.847 136.872ZM77.2882 150.948C75.1864 151.511 73.366 151.27 71.827 150.224C70.3498 149.163 69.1133 147.639 68.1173 145.653C67.1667 143.589 66.4015 141.475 65.8217 139.311C65.4242 137.827 65.1133 136.42 64.8891 135.088C64.6483 133.695 64.4572 132.488 64.3158 131.465C63.9458 128.848 63.6933 126.298 63.5584 123.817C63.4235 121.335 63.3488 119.202 63.3343 117.417C63.3816 115.615 63.4008 114.45 63.392 113.923C63.4073 112.991 63.755 112.434 64.435 112.252C65.115 112.07 66.012 112.326 67.126 113.022C68.2233 113.655 69.032 114.2 69.552 114.657C71.0898 114.709 72.6215 114.862 74.1472 115.116C75.6563 115.308 76.9347 115.628 77.9824 116.076C79.0919 116.507 79.7543 117.125 79.9696 117.929C80.3837 119.474 80.1487 121.193 79.2646 123.087C78.3806 124.98 77.1233 126.841 75.493 128.669C73.8626 130.497 72.1516 132.149 70.3601 133.622C70.5722 135.156 70.877 136.664 71.2745 138.148C71.9371 140.621 72.8259 142.702 73.9411 144.391C75.0562 146.079 76.3556 146.725 77.8392 146.328C79.1375 145.98 80.2496 145.185 81.1757 143.943C82.1636 142.684 82.9926 141.203 83.6625 139.5C84.3324 137.796 84.8788 136.126 85.3014 134.489C85.7693 132.773 86.0872 131.363 86.2549 130.258C86.2791 129.854 86.5076 129.594 86.9403 129.478C87.1876 129.412 87.3858 129.657 87.5349 130.213C87.6674 130.708 87.5781 131.858 87.2669 133.664C86.9226 135.346 86.5309 136.975 86.0916 138.551C85.6977 140.048 85.2623 141.39 84.7855 142.578C84.099 144.22 83.1569 145.897 81.9593 147.609C80.8235 149.305 79.2664 150.418 77.2882 150.948ZM69.9425 130.952C71.7915 129.197 73.3352 127.293 74.5736 125.238C75.8573 123.105 76.2424 121.081 75.7289 119.164C75.5467 118.484 74.8391 117.945 73.6059 117.547C72.418 117.07 71.0778 116.766 69.5853 116.636C69.3735 118.813 69.2876 121.089 69.3276 123.464C69.4293 125.822 69.6343 128.318 69.9425 130.952ZM111.673 190.633C111.24 190.748 110.729 190.819 110.139 190.845C109.612 190.853 109.028 190.778 108.389 190.618C106.393 190.093 104.602 188.85 103.017 186.889C101.448 184.991 100.042 182.585 98.7971 179.671C97.6146 176.742 96.5843 173.639 95.7064 170.362C95.1432 168.26 94.6419 166.142 94.2023 164.007C93.7628 161.872 93.3707 159.791 93.0261 157.763L91.7097 158.414C91.4624 158.48 90.9943 158.34 90.3054 157.995C89.6784 157.633 89.0656 157.2 88.4673 156.698C87.8854 156.258 87.5614 155.914 87.4952 155.667C87.3869 154.768 87.7091 153.622 88.4619 152.227C89.2147 150.833 90.26 149.294 91.5978 147.61C91.515 147.301 91.4796 147.046 91.4918 146.844C91.1007 143.901 90.8266 140.529 90.6696 136.728C90.4959 132.865 90.4663 128.798 90.5808 124.527C90.6952 120.256 91.0282 116.059 91.5798 111.935C90.1568 111.323 88.6455 110.999 87.0459 110.964C85.4463 110.929 83.9808 111.023 82.6495 111.247C81.3799 111.455 80.4361 111.642 79.8179 111.807C79.4304 111.845 79.2488 111.662 79.273 111.258C79.3426 110.775 79.544 110.29 79.8773 109.804C80.2559 109.238 80.6307 108.906 81.0016 108.807C82.7944 108.326 84.6512 107.961 86.572 107.712C88.4928 107.462 90.385 107.352 92.2484 107.383L92.697 104.977C92.1604 104.458 91.7166 103.915 91.3655 103.346C91.0762 102.761 90.857 102.19 90.7079 101.634C90.5423 101.016 90.5025 100.496 90.5886 100.076C90.7066 98.7853 90.86 97.7504 91.0487 96.971C91.2826 96.1132 91.8036 95.7086 92.6117 95.7571C93.7455 95.7846 94.8219 96.0925 95.8408 96.6808C96.9217 97.2525 97.4461 97.9734 97.4141 98.8433C97.2343 100.15 97.0484 101.558 96.8565 103.068C96.6479 104.515 96.4869 106.016 96.3733 107.57C100.15 107.817 103.725 108.549 107.099 109.765C110.534 110.965 113.525 112.482 116.071 114.318C118.085 115.898 119.351 117.779 119.868 119.959L122.438 117.68C123.34 116.842 124.044 116.256 124.551 115.922C125.041 115.525 125.41 115.294 125.657 115.228C126.028 115.128 126.063 115.384 125.763 115.994C125.446 116.543 124.992 117.195 124.399 117.95C123.851 118.627 123.341 119.194 122.867 119.653L120.137 122.074C120.292 123.888 120.061 125.871 119.445 128.023C118.891 130.16 118.098 132.393 117.066 134.724C115.779 137.586 114.033 140.34 111.826 142.985C109.603 145.569 107.213 147.899 104.655 149.976C102.176 152.098 99.7454 153.908 97.3644 155.408C98.0802 161.046 99.0841 166.277 100.376 171.099C101.039 173.571 101.744 175.834 102.493 177.886C103.303 179.922 104.18 181.708 105.121 183.244C106.431 185.411 107.657 186.772 108.8 187.328C110.004 187.866 111.039 188.02 111.904 187.788C112.523 187.622 113.046 187.349 113.474 186.969C113.981 186.635 114.364 186.334 114.623 186.065C115.052 185.685 115.451 185.446 115.822 185.346C116.193 185.247 116.42 185.352 116.503 185.661C116.536 185.785 116.501 186.026 116.398 186.385C116.234 186.76 115.757 187.451 114.966 188.458C114.192 189.527 113.095 190.252 111.673 190.633ZM96.1428 142.318C99.0702 139.148 102.253 135.943 105.692 132.703C109.192 129.446 112.334 126.583 115.118 124.114C115.253 122.886 115.146 121.622 114.798 120.324C114.218 118.16 112.868 116.336 110.747 114.85C108.672 113.286 105.603 112.22 101.542 111.651C100.655 111.558 99.7688 111.464 98.8824 111.37C97.9793 111.215 97.0619 111.129 96.1302 111.114C95.8061 115.839 95.6348 120.887 95.6165 126.259C95.6435 131.552 95.8189 136.905 96.1428 142.318ZM96.839 150.48C99.7963 148.163 102.304 145.901 104.363 143.693C106.467 141.407 108.661 138.467 110.944 134.873C112.623 132.237 113.808 129.733 114.497 127.362C112.175 129.574 109.821 131.795 107.437 134.024C105.115 136.236 102.992 138.329 101.069 140.302C99.1295 142.213 97.5588 143.893 96.3567 145.341L96.839 150.48ZM90.7407 154.797C91.0166 154.591 91.2926 154.384 91.5686 154.178C91.8445 153.971 92.0979 153.804 92.3286 153.676L91.9789 150.887C91.4767 151.486 91.0838 152.121 90.8001 152.793C90.5164 153.466 90.4966 154.134 90.7407 154.797ZM146.947 84.6766C146.576 84.7759 146.158 84.8218 145.692 84.8141C145.271 84.728 144.85 84.642 144.43 84.5559C144.133 84.4367 143.943 84.2225 143.86 83.9134C143.711 83.3571 143.869 82.586 144.334 81.6001C144.782 80.5524 145.448 79.5787 146.334 78.6789C147.219 77.7791 148.156 77.1967 149.145 76.9317C149.702 76.7826 150.021 76.8626 150.104 77.1717C150.17 77.419 149.975 77.8026 149.518 78.3226C148.97 78.9994 148.658 79.8119 148.581 80.7602C148.504 81.7085 148.402 82.564 148.275 83.3269C148.131 84.0279 147.689 84.4778 146.947 84.6766ZM155.456 130.897C153.725 131.361 152.343 130.903 151.311 129.523C150.262 128.082 149.39 126.063 148.694 123.466C148.048 121.055 147.492 118.487 147.027 115.763C146.608 112.96 146.299 110.326 146.103 107.861C145.951 105.318 145.986 103.221 146.206 101.572C146.41 99.8607 146.822 98.9224 147.44 98.7567C148.12 98.5745 148.798 98.7572 149.475 99.3047C150.197 99.7738 150.82 100.369 151.345 101.09C151.931 101.794 152.29 102.393 152.423 102.888C152.284 103.853 152.193 105.368 152.15 107.433C152.152 109.42 152.204 111.593 152.306 113.951C152.453 116.231 152.59 118.347 152.716 120.301C152.887 122.177 153.072 123.486 153.271 124.227C153.867 126.453 154.753 127.408 155.927 127.094C156.422 126.961 156.883 126.705 157.311 126.325C158.016 125.739 158.643 124.743 159.194 123.336C159.807 121.913 160.347 120.344 160.815 118.628C161.266 116.851 161.672 115.152 162.033 113.531C162.377 111.849 162.672 110.478 162.919 109.418C163.148 108.296 163.325 107.719 163.448 107.686C163.696 107.619 163.885 107.834 164.018 108.328C164.167 108.884 164.191 109.839 164.089 111.191C163.971 112.482 163.738 113.836 163.389 115.255C163.143 116.315 162.84 117.655 162.479 119.275C162.118 120.896 161.664 122.542 161.118 124.212C160.555 125.82 159.811 127.246 158.885 128.488C157.959 129.73 156.816 130.533 155.456 130.897ZM174.039 132.775C173.421 132.941 172.423 132.678 171.045 131.987C169.746 131.342 168.673 130.304 167.826 128.875C167.297 127.89 166.731 126.518 166.127 124.758C165.523 122.999 164.923 121.006 164.326 118.78C163.332 115.071 162.326 111.067 161.306 106.769C160.349 102.454 159.415 98.5959 158.504 95.1958C158.206 94.0831 157.893 93.0405 157.566 92.0679C157.301 91.0788 157.038 90.2216 156.778 89.4963C156.621 89.4058 156.225 89.4125 155.59 89.5163C155.001 89.5418 154.42 89.5981 153.847 89.6854C153.319 89.6943 153.055 89.6987 153.055 89.6987C153.022 89.5751 153.411 89.1726 154.223 88.4914C155.079 87.7318 156.404 87.1119 158.197 86.6315C160.051 86.1346 161.364 86.2134 162.136 86.868C162.953 87.4441 163.436 88.0104 163.585 88.5668C163.618 88.6904 163.66 88.845 163.709 89.0304C163.759 89.2159 163.77 89.3787 163.741 89.5189C163.939 92.9776 164.325 97.0152 164.899 101.632C165.457 106.187 166.39 110.906 167.699 115.79C168.014 116.964 168.295 118.015 168.544 118.942C168.838 119.791 169.076 120.556 169.258 121.236L169.481 122.07C168.925 118.509 168.696 115.059 168.795 111.719C168.877 108.318 168.885 104.639 168.819 100.681C168.699 97.2676 168.655 94.6292 168.686 92.7658C168.762 90.8239 168.987 89.4384 169.361 88.6094C169.78 87.7019 170.392 87.1405 171.196 86.9251C172.308 86.627 173.205 86.8836 173.886 87.6949C174.568 88.5062 175.185 89.699 175.74 91.2732C176.294 92.8473 176.915 94.6688 177.601 96.7375C178.272 98.7444 179.169 100.856 180.293 103.073C181.979 106.398 183.532 108.731 184.952 110.074C186.371 111.416 187.421 111.996 188.101 111.814C188.905 111.598 189.576 110.888 190.115 109.684C190.637 108.418 191.086 107.005 191.464 105.446C191.841 103.888 192.176 102.539 192.467 101.401C192.804 100.184 193.157 99.5264 193.528 99.427C193.714 99.3773 193.848 99.507 193.931 99.8161C193.997 100.063 194.012 100.49 193.975 101.096C193.358 104.972 192.78 108.009 192.243 110.207C191.689 112.343 190.484 113.66 188.63 114.157C187.208 114.538 185.62 114.301 183.867 113.445C182.96 113.026 181.953 112.235 180.847 111.074C179.786 109.834 178.722 108.463 177.657 106.959C176.592 105.456 175.582 104.037 174.628 102.702C173.719 101.289 172.947 100.138 172.311 99.2483C171.675 98.3586 171.295 97.9303 171.172 97.9634C171.048 97.9966 170.865 98.1782 170.622 98.5083C170.441 98.8218 170.371 99.3042 170.413 99.9556C170.389 104.07 170.543 108.104 170.873 112.057C171.249 115.932 171.688 119.425 172.19 122.537C172.676 125.587 173.135 127.916 173.565 129.523C173.781 130.327 173.961 130.875 174.105 131.168C174.328 131.505 174.465 131.767 174.515 131.952C174.63 132.385 174.472 132.659 174.039 132.775ZM230.774 112.902C228.611 113.482 226.667 113.274 224.942 112.278C223.201 111.221 221.661 109.679 220.323 107.652C219.047 105.609 217.946 103.353 217.019 100.885C216.076 98.3546 215.298 95.9459 214.685 93.6586C214.321 92.2985 214.021 91.0539 213.784 89.9246C213.531 88.7334 213.328 87.7278 213.175 86.9075C212.669 84.5253 212.198 81.9018 211.761 79.0371C211.309 76.1106 210.901 73.1057 210.539 70.0225C207.457 71.3784 204.628 72.567 202.052 73.5884C199.415 74.6263 197.2 75.3854 195.407 75.8658C195.16 75.9321 194.706 75.7224 194.046 75.2367C193.386 74.751 192.841 74.2013 192.412 73.5875C191.92 72.9903 191.807 72.6895 192.07 72.6851C192.705 72.5813 193.309 72.4857 193.882 72.3985C194.438 72.2494 195.026 72.092 195.644 71.9264C197.498 71.4294 199.536 70.7509 201.757 69.8907C203.917 69.0471 206.708 67.9678 210.133 66.6527C209.799 63.4292 209.505 60.2284 209.249 57.0502C209.056 53.8554 208.904 50.8151 208.793 47.9294C208.771 46.6102 208.784 45.5466 208.833 44.7385C208.943 43.9138 209.416 43.4557 210.253 43.364C211.028 43.2888 211.875 43.36 212.795 43.5774C213.715 43.7948 214.404 44.1402 214.862 44.6138C216.413 45.4571 217.707 46.7005 218.743 48.3442C219.764 49.9261 220.564 51.7988 221.143 53.9625C221.756 56.2498 222.149 58.828 222.321 61.6972C225.589 60.2916 228.924 58.7684 232.328 57.1277C235.776 55.4085 239.101 53.7225 242.302 52.0696C245.549 50.3384 248.48 48.791 251.097 47.4274C251.496 47.1878 251.575 47.233 251.332 47.5631C251.072 47.8314 250.698 48.1637 250.207 48.5601C249.717 48.9564 249.303 49.2661 248.966 49.4892C245.435 51.8927 241.341 54.4145 236.681 57.0544C232.022 59.6943 227.29 62.188 222.486 64.5354C222.606 68.9423 222.367 73.6114 221.766 78.5428C221.15 83.4123 220.399 88.1522 219.514 92.7623C219.68 93.3805 219.814 94.007 219.918 94.6417C220.067 95.1981 220.225 95.7854 220.39 96.4036C221.202 99.4327 222.085 102.111 223.04 104.439C224.041 106.689 225.142 108.448 226.343 109.717C227.181 110.618 227.998 111.195 228.794 111.445C229.635 111.617 230.395 111.612 231.075 111.43C231.756 111.248 232.371 110.95 232.923 110.537C233.475 110.124 233.889 109.815 234.165 109.608C234.762 109.117 235.193 108.869 235.457 108.865C235.721 108.86 235.739 109.054 235.513 109.446C235.394 109.743 234.945 110.294 234.167 111.099C233.389 111.903 232.258 112.505 230.774 112.902ZM215.893 64.4134L217.142 63.8801L220.288 62.6396C220.216 61.1349 220.068 59.7169 219.844 58.3856C219.681 57.0377 219.443 55.7764 219.128 54.6019C218.267 51.3873 216.992 48.9791 215.304 47.3775C215.287 50.0324 215.333 52.8028 215.444 55.6885C215.555 58.5742 215.704 61.4825 215.893 64.4134ZM218.5 87.8659C219.073 84.0683 219.544 80.2646 219.915 76.4549C220.286 72.6451 220.442 69.0253 220.384 65.5954C219.614 65.9343 218.874 66.265 218.165 66.5874C217.457 66.9098 216.748 67.2323 216.039 67.5547C216.316 71.0586 216.654 74.5459 217.054 78.0166C217.499 81.409 217.981 84.6921 218.5 87.8659ZM246.032 104.441C243.807 105.037 241.978 104.765 240.546 103.625C239.098 102.423 238.092 100.771 237.529 98.669C236.933 96.4435 236.729 93.5826 236.919 90.0864C237.108 86.5903 237.409 83.263 237.822 80.1045C236.953 81.0661 236.037 81.9742 235.073 82.8287C234.11 83.6833 233.195 84.2265 232.33 84.4584C231.712 84.624 231.206 84.5937 230.815 84.3675C230.484 84.1246 230.27 83.8177 230.17 83.4468C230.087 83.1377 230.056 82.6492 230.076 81.9814C230.096 81.3135 230.247 80.6434 230.531 79.971C230.876 79.2821 231.389 78.8466 232.069 78.6644C232.317 78.5981 232.465 78.6577 232.515 78.8432C232.531 78.905 232.517 78.9751 232.472 79.0535C232.472 79.0535 232.48 79.0844 232.496 79.1462C232.468 79.2864 232.47 79.4183 232.503 79.542C232.569 79.7893 232.757 79.8715 233.066 79.7887C233.252 79.739 233.46 79.6501 233.69 79.522C233.983 79.3774 234.259 79.1709 234.518 78.9026C235.054 78.4279 235.665 77.8665 236.353 77.2184C237.024 76.5085 237.788 75.7738 238.645 75.0142L239.29 71.8596C239.479 71.0802 239.787 70.5006 240.216 70.1208C240.627 69.6792 241.05 69.4005 241.482 69.2845C242.162 69.1023 242.783 69.0686 243.344 69.1833C243.95 69.2197 244.51 69.3345 245.026 69.5276C245.623 69.0363 246.26 68.5676 246.935 68.1216C247.656 67.5972 248.371 67.1737 249.079 66.8513C251.197 65.3564 253.456 64.0221 255.858 62.8484C258.244 61.6129 260.673 60.6638 263.146 60.0013C264.506 59.6368 265.946 59.4496 267.468 59.4395C268.989 59.4295 269.857 59.8263 270.072 60.6299C270.139 60.8772 269.925 61.0671 269.43 61.1996C268.441 61.4646 267.264 61.6474 265.9 61.748C264.597 61.832 263.328 62.0397 262.091 62.371C260.546 62.7851 259.087 63.2753 257.715 63.8418C256.326 64.3464 255.055 64.9189 253.901 65.5593C255.006 65.727 256.009 66.2535 256.909 67.1388C257.87 68.0075 258.566 69.2455 258.997 70.8528C259.461 72.5837 259.583 74.7706 259.363 77.4135C259.206 80.0398 258.756 82.8107 258.013 85.7263C257.332 88.6253 256.393 91.4277 255.197 94.1336C253.984 96.7776 252.602 99.0364 251.05 100.91C249.498 102.783 247.825 103.96 246.032 104.441ZM246.531 102.22C247.829 101.872 249.001 100.929 250.046 99.3899C251.153 97.8343 252.146 95.978 253.026 93.8208C253.906 91.6636 254.614 89.486 255.152 87.288C255.414 86.2901 255.656 84.9664 255.877 83.3171C256.159 81.6512 256.293 79.9258 256.279 78.1407C256.326 76.3391 256.167 74.7582 255.803 73.3982C255.472 72.1618 254.92 71.2163 254.148 70.5618C253.422 69.8288 252.348 69.6528 250.926 70.0338C250.246 70.216 249.43 70.6334 248.479 71.2859C247.527 71.9384 246.53 72.6693 245.488 73.4786C245.307 73.7921 245.135 74.1366 244.97 74.5119C244.851 74.8089 244.771 75.1285 244.73 75.4707C244.135 77.9491 243.607 80.6748 243.144 83.6477C242.666 86.5589 242.356 89.3585 242.214 92.0466C242.135 94.7181 242.344 96.9812 242.841 98.8358C243.57 101.556 244.8 102.684 246.531 102.22ZM292.09 95.0814C291.039 95.363 289.886 95.1417 288.632 94.4176C287.423 93.6152 286.603 92.4103 286.173 90.803C285.361 87.7738 284.65 84.7508 284.041 81.7338C283.476 78.6384 283.003 75.883 282.621 73.4676C282.284 70.9738 282.028 69.154 281.854 68.0081C281.931 70.7701 281.854 73.5736 281.623 76.4185C281.391 79.2634 281.118 81.9537 280.804 84.4895C280.473 86.9634 280.174 89.0643 279.908 90.7919C279.626 92.4578 279.481 93.5237 279.473 93.9895C279.408 94.7358 278.974 95.2166 278.17 95.432C277.552 95.5976 276.791 95.6026 275.888 95.4471C274.985 95.2915 274.158 95.0492 273.408 94.7203C272.702 94.313 272.269 93.9322 272.108 93.5779C271.963 93.2853 271.841 92.9536 271.742 92.5827C271.626 92.1499 271.51 91.7172 271.394 91.2845C270.632 88.4408 270.088 85.6711 269.764 82.9753C269.422 80.2176 269.058 77.4992 268.672 74.82C268.481 73.6123 268.302 72.2026 268.135 70.5908C267.968 68.9791 267.694 67.4623 267.313 66.0405C267.147 65.4223 266.959 64.8433 266.748 64.3035C266.521 63.7018 266.256 63.2095 265.955 62.8265C265.575 62.3982 264.858 62.1929 263.802 62.2106C262.73 62.1666 261.854 62.2357 261.174 62.4179C260.432 62.6166 260.012 62.5306 259.912 62.1596C259.73 61.4796 260.272 60.9039 261.537 60.4324C262.678 59.994 263.727 59.5805 264.683 59.1918C265.622 58.7414 266.556 58.3919 267.483 58.1434C268.348 57.9115 269.053 57.822 269.598 57.875C270.204 57.9113 270.573 58.1768 270.705 58.6714C271.335 61.0205 271.88 63.9222 272.342 67.3764C272.787 70.7687 273.226 74.2621 273.66 77.8565C274.154 81.4343 274.775 84.6142 275.52 87.396C275.752 88.2615 276.006 89.0878 276.284 89.8749C276.544 90.6001 276.829 90.9214 277.138 90.8385C277.571 90.7226 277.976 89.8852 278.353 88.3264C278.714 86.7058 279.013 84.605 279.249 82.0239C279.546 79.4264 279.772 76.6825 279.925 73.7924C280.062 70.8404 280.139 68.0369 280.156 65.382C280.174 62.727 280.144 60.5152 280.068 58.7467C280.047 58.4211 280.253 58.2003 280.686 58.0843C281.366 57.9021 282.207 58.0743 283.209 58.6007C284.257 59.0489 285.082 59.656 285.685 60.422C285.698 61.2136 285.815 62.6398 286.036 64.7009C286.257 66.7619 286.545 69.0702 286.898 71.6258C287.251 74.1814 287.659 76.6895 288.119 79.1502C288.563 81.549 289 83.5521 289.431 85.1594C289.945 87.0758 290.436 88.1697 290.907 88.4413C291.422 88.6344 291.896 88.673 292.329 88.557C292.824 88.4245 293.264 87.8427 293.65 86.8116C294.099 85.7639 294.489 84.4999 294.821 83.0195C295.153 81.5391 295.493 80.0896 295.842 78.671C296.174 77.1905 296.472 75.9513 296.734 74.9534C297.059 73.9388 297.376 73.3901 297.685 73.3073C297.932 73.241 298.097 73.3625 298.18 73.6716C298.23 73.857 298.228 74.2219 298.175 74.7661C298.093 75.4506 297.934 76.5865 297.697 78.174C297.505 79.6831 297.231 81.3799 296.874 83.2644C296.501 85.087 296.081 86.8561 295.613 88.5717C295.145 90.2872 294.611 91.7555 294.01 92.9765C293.41 94.1975 292.77 94.8992 292.09 95.0814ZM311.008 91.9007C307.422 92.8614 304.352 92.6569 301.799 91.2871C299.307 89.9008 297.689 87.8167 296.943 85.0348C296.148 82.0675 295.971 78.9345 296.413 75.6359C296.837 72.2755 297.736 68.9536 299.109 65.6704C300.482 62.3872 302.216 59.3385 304.311 56.5244C306.406 53.7102 308.772 51.2874 311.408 49.256C314.044 47.2245 316.784 45.8278 319.627 45.0658C321.358 44.602 322.863 44.5301 324.141 44.8501C325.42 45.1702 326.142 45.6393 326.308 46.2575C326.357 46.4429 326.337 46.6141 326.246 46.7708C326.065 47.0844 325.868 47.8328 325.655 49.0163C325.488 50.1213 325.33 51.3892 325.184 52.82C325.099 54.2341 325.053 55.6709 325.047 57.1303C325.085 58.5113 325.229 59.6655 325.478 60.5928C325.536 61.3059 325.318 61.7287 324.824 61.8613C324.391 61.9772 323.733 61.6235 322.85 60.8C322.012 59.8981 321.361 58.5817 320.897 56.8508C320.599 55.7381 320.5 54.5055 320.602 53.1532C320.765 51.7843 320.931 50.5473 321.098 49.4422C321.311 48.2588 321.36 47.4507 321.244 47.018C321.178 46.7707 321.021 46.6802 320.774 46.7465C320.588 46.7961 320.403 46.8458 320.217 46.8955C318.919 47.2434 317.253 48.3193 315.218 50.1233C313.167 51.8655 310.971 54.6736 308.63 58.5475C307.075 61.1507 305.765 64.0526 304.701 67.253C303.637 70.4534 302.922 73.5936 302.554 76.6736C302.249 79.7371 302.411 82.4434 303.04 84.7925C303.769 87.5126 304.921 89.0922 306.497 89.5314C308.134 89.9541 309.849 89.9253 311.642 89.4449C314.732 88.6167 317.666 87.2012 320.442 85.1984C323.28 83.179 325.786 80.7849 327.96 78.0161C330.195 75.2306 331.892 72.2912 333.051 69.1979C333.079 69.0577 333.125 68.9793 333.186 68.9627C333.232 68.8844 333.254 68.8452 333.254 68.8452C333.378 68.812 333.473 68.9191 333.539 69.1664C333.622 69.4755 333.645 69.9331 333.609 70.5391C333.634 71.1286 333.565 71.6111 333.4 71.9864C332.677 74.2341 331.446 76.6844 329.705 79.3373C327.948 81.9284 325.551 84.3595 322.516 86.6306C319.48 88.9016 315.644 90.6583 311.008 91.9007ZM346.696 84.5246C345.645 84.8062 344.605 84.389 343.577 83.273C342.611 82.1404 341.709 80.6265 340.87 78.7311C340.014 76.7739 339.218 74.6682 338.481 72.414C337.728 70.098 337.078 67.92 336.532 65.8799C335.422 61.738 334.433 57.4311 333.566 52.9591C332.761 48.4706 332.09 44.1117 331.553 39.8826C331 35.5916 330.577 31.6632 330.284 28.0975C329.991 24.5318 329.785 21.5391 329.667 19.1192C329.594 16.621 329.613 14.9596 329.723 14.1349C329.874 12.9681 329.974 11.9806 330.022 11.1725C330.133 10.3478 330.497 9.8527 331.115 9.68705C332.104 9.42202 333.17 9.5671 334.313 10.1223C335.517 10.6609 336.211 11.2702 336.393 11.9502L336.443 12.1357C336.681 11.5417 337.14 11.1537 337.82 10.9715C338.809 10.7064 339.714 10.9939 340.536 11.834C341.419 12.6574 342.158 13.6851 342.753 14.9171C343.394 16.0706 343.822 17.0492 344.037 17.8529C344.683 20.2638 344.909 23.0855 344.715 26.3179C344.504 29.4884 344.032 32.7953 343.298 36.2385C342.548 39.62 341.68 42.9335 340.695 46.1792C339.692 49.363 338.731 52.2047 337.811 54.7041C338.226 57.2431 338.68 59.8048 339.174 62.389C339.668 64.9733 340.254 67.5328 340.933 70.0673C341.298 71.4274 341.677 72.7173 342.07 73.9371C342.525 75.1404 342.963 76.2818 343.385 77.3614C343.18 75.3622 343.033 73.0826 342.944 70.5225C342.854 67.9625 342.804 65.4251 342.792 62.9103C342.765 60.3337 342.772 58.0127 342.815 55.9472C342.92 53.8652 343.041 52.3417 343.18 51.3769C343.401 49.7276 343.923 48.4613 344.747 47.5781C345.632 46.6783 346.538 46.1042 347.465 45.8557C347.836 45.7563 348.286 46.199 348.815 47.1836C349.344 48.1683 349.886 49.4477 350.44 51.0219C351.056 52.5795 351.658 54.2072 352.245 55.905C352.816 57.541 353.298 58.9689 353.691 60.1887C354.411 62.3811 355.112 63.883 355.793 64.6943C356.474 65.5056 357.087 65.9378 357.631 65.9907C358.175 66.0437 358.61 66.0596 358.936 66.0386C359.492 65.8895 359.978 65.2293 360.393 64.058C360.853 62.8083 361.241 61.4124 361.557 59.8701C361.934 58.3113 362.3 56.9546 362.653 55.7998C362.989 54.5832 363.343 53.9253 363.714 53.8259C363.899 53.7762 364.034 53.9059 364.116 54.215C364.183 54.4623 364.198 54.8889 364.161 55.495C363.442 60.7233 362.655 64.7108 361.801 67.4575C360.947 70.2042 359.685 71.8011 358.016 72.2484C356.656 72.6128 355.509 72.2905 354.577 71.2816C353.219 69.9228 352.097 68.3349 351.213 66.5178C350.312 64.639 349.465 62.7127 348.671 60.7389C347.939 58.7486 347.085 56.9233 346.11 55.2631C345.949 54.9087 345.745 54.7647 345.497 54.8309C345.312 54.8806 345.176 55.1158 345.09 55.5364C345.066 55.9404 345.005 56.4538 344.906 57.0764C344.837 57.5588 344.772 58.8019 344.713 60.8055C344.699 62.7308 344.73 65.0744 344.808 67.8365C344.869 70.5367 345.064 73.3667 345.393 76.3263C345.706 79.2241 346.185 81.8785 346.831 84.2895C346.864 84.4131 346.819 84.4915 346.696 84.5246ZM337.38 51.2416C338.423 47.7155 339.385 44.0123 340.267 40.1318C341.194 36.173 341.828 32.3589 342.17 28.6893C342.512 25.0198 342.319 21.825 341.59 19.105C341.209 17.6831 340.684 16.4655 340.015 15.4522C339.329 14.377 338.384 13.5701 337.179 13.0315C337.085 12.9244 336.967 12.8565 336.827 12.8278C336.687 12.7991 336.546 12.7704 336.406 12.7418C336.062 18.1345 335.923 24.1681 335.989 30.8426C336.038 37.4552 336.502 44.2548 337.38 51.2416ZM373.563 56.4542C373.254 56.537 372.922 56.1623 372.566 55.3299C372.273 54.481 371.993 53.562 371.728 52.5729C370.685 48.6783 369.668 44.5116 368.677 40.0727C367.686 35.6339 366.628 31.3126 365.502 27.1089C364.922 24.9452 364.297 22.8599 363.626 20.853C362.94 18.7843 362.202 16.8949 361.412 15.185C361.329 14.8759 361.504 14.6634 361.937 14.5474C362.431 14.4149 363.091 14.4038 363.916 14.5141C364.786 14.5461 365.61 14.6564 366.39 14.8451C367.169 15.0338 367.701 15.2888 367.986 15.61C368.886 16.4953 369.667 18.1743 370.33 20.6471C370.976 23.058 371.474 25.9062 371.824 29.1915C372.174 32.4768 372.479 35.8404 372.739 39.2825C372.982 42.6627 373.173 45.7256 373.313 48.4711C373.514 51.2 373.726 53.2302 373.951 54.5615C374.187 55.6908 374.058 56.3217 373.563 56.4542ZM376.676 74.0066C375.934 74.2054 374.955 74.1365 373.739 73.7999C373.083 73.578 372.672 73.158 372.507 72.5398C372.308 71.798 372.647 70.7134 373.523 69.2859C374.461 67.8418 375.889 66.8631 377.805 66.3496C378.918 66.0514 379.54 66.1496 379.673 66.6442C379.739 66.8915 379.628 67.2193 379.34 67.6278C378.764 68.4448 378.429 69.2965 378.335 70.183C378.241 71.0694 378.123 71.8632 377.979 72.5642C377.853 73.327 377.418 73.8078 376.676 74.0066Z" fill="#067993"/>
</svg>
