<svg width="25" height="24" viewBox="0 0 25 24" fill="none" xmlns="http://www.w3.org/2000/svg">
<rect width="24.0448" height="24" rx="2.18182" fill="#12092A"/>
<path d="M4.61537 9.43472H7.78704V19.6364H4.61537V9.43472ZM6.20129 4.36365C7.215 4.36365 8.03881 5.18746 8.03881 6.20287C8.03881 7.21725 7.215 8.04107 6.20129 8.04107C5.18521 8.04107 4.36377 7.21725 4.36377 6.20287C4.36377 5.18746 5.18521 4.36365 6.20129 4.36365Z" fill="white"/>
<path d="M9.79346 9.43475H12.8347V10.8298H12.8781C13.3014 10.0274 14.336 9.18213 15.8781 9.18213C19.0888 9.18213 19.6815 11.2944 19.6815 14.0412V19.6364H16.5122V14.6753C16.5122 13.4919 16.4916 11.9703 14.8645 11.9703C13.2145 11.9703 12.9628 13.2601 12.9628 14.5903V19.6364H9.79346V9.43475Z" fill="white"/>
</svg>
