<svg width="29" height="28" viewBox="0 0 29 28" fill="none" xmlns="http://www.w3.org/2000/svg">
<rect width="28.0522" height="28" rx="2.54545" fill="white"/>
<path d="M5.38447 11.0071H9.08476V22.909H5.38447V11.0071ZM7.23472 5.09082C8.41737 5.09082 9.37849 6.05194 9.37849 7.23658C9.37849 8.42003 8.41737 9.38115 7.23472 9.38115C6.04928 9.38115 5.09094 8.42003 5.09094 7.23658C5.09094 6.05194 6.04928 5.09082 7.23472 5.09082Z" fill="#361A7F"/>
<path d="M11.4254 11.0071H14.9735V12.6346H15.0241C15.5179 11.6985 16.725 10.7124 18.5241 10.7124C22.27 10.7124 22.9614 13.1767 22.9614 16.3813V22.9091H19.2638V17.1211C19.2638 15.7405 19.2398 13.9653 17.3416 13.9653C15.4166 13.9653 15.1229 15.47 15.1229 17.022V22.9091H11.4254V11.0071Z" fill="#361A7F"/>
</svg>
