<svg width="33" height="32" viewBox="0 0 33 32" fill="none" xmlns="http://www.w3.org/2000/svg">
<rect x="0.94043" width="32.0597" height="32" rx="2.90909" fill="#0A66C2"/>
<path d="M7.09401 12.5796H11.3229V26.1818H7.09401V12.5796ZM9.20857 5.81818C10.5602 5.81818 11.6586 6.9166 11.6586 8.27047C11.6586 9.62298 10.5602 10.7214 9.20857 10.7214C7.85379 10.7214 6.75854 9.62298 6.75854 8.27047C6.75854 6.9166 7.85379 5.81818 9.20857 5.81818Z" fill="white"/>
<path d="M13.998 12.5796H18.0531V14.4396H18.1109C18.6753 13.3698 20.0548 12.2428 22.1109 12.2428C26.3919 12.2428 27.182 15.0591 27.182 18.7216V26.1818H22.9563V19.567C22.9563 17.9892 22.9289 15.9603 20.7595 15.9603C18.5595 15.9603 18.2238 17.6801 18.2238 19.4537V26.1818H13.998V12.5796Z" fill="white"/>
</svg>
